<?xml version="1.0" encoding="utf-8"?>
<svg version="1.1" xmlns:xlink="http://www.w3.org/1999/xlink" width="29px" height="20px" xmlns="http://www.w3.org/2000/svg">
  <defs>
    <pattern id="BGPattern" patternUnits="userSpaceOnUse" alignment="0 0" imageRepeat="None" />
    <mask fill="white" id="Clip16">
      <path d="M 24.831474597273854 11.42634450506625  C 24.843453118546055 11.447129124447908  24.849442379182157 11.478306053520395  24.849442379182157 11.51987529228371  L 24.849442379182157 19.002338269680436  C 24.849442379182157 19.27253832164198  24.735646427096246 19.506365289685633  24.50805452292441 19.70381917381138  C 24.280462618752583 19.90127305793713  24.01094589012805 20  23.699504337050804 20  L 16.7998760842627 20  L 16.7998760842627 14.01402961808262  L 12.200123915737299 14.01402961808262  L 12.200123915737299 20  L 5.300495662949195 20  C 4.9890541098719545 20  4.719537381247419 19.90127305793713  4.491945477075588 19.70381917381138  C 4.264353572903759 19.506365289685633  4.150557620817843 19.27253832164198  4.150557620817843 19.002338269680436  L 4.150557620817843 11.51987529228371  C 4.150557620817843 11.50948298259288  4.153552251135895 11.493894518056639  4.159541511771995 11.47310989867498  C 4.165530772408096 11.452325279293323  4.1685254027261465 11.43673681475708  4.1685254027261465 11.42634450506625  L 14.5 4.037412314886984  L 24.831474597273854 11.42634450506625  Z M 28.982032218091696 10.077942322681217  C 28.9940107393639 10.218238503507404  28.952085914911198 10.340348142374642  28.85625774473358 10.444271239282932  L 27.742255266418834 11.597817614964928  C 27.646427096241226 11.691348402182387  27.52065262288311 11.748506105481944  27.364931846344486 11.769290724863602  L 27.311028500619578 11.769290724863602  C 27.15530772408096 11.769290724863602  27.029533250722846 11.732917640945699  26.933705080545227 11.660171473109898  L 14.5 2.665627435697584  L 2.0662949194547706 11.660171473109898  C 1.922552664188352 11.743309950636526  1.7788104089219332 11.779683034554429  1.6350681536555143 11.769290724863602  C 1.479347377116894 11.748506105481944  1.3535729037587776 11.691348402182387  1.2577447335811647 11.597817614964928  L 0.14374225526641884 10.444271239282932  C 0.0479140850888063 10.340348142374642  0.005989260636100828 10.218238503507404  0.017967781908302356 10.077942322681217  C 0.02994630318050401 9.937646141855028  0.0958281701776126 9.825928812678617  0.21561338289962825 9.742790335151987  L 13.13444857496902 0.40530007794232326  C 13.517761255679472 0.1351000259807722  13.972945064023131 0  14.5 0  C 15.02705493597687 0  15.482238744320531 0.1351000259807722  15.86555142503098 0.40530007794232326  L 20.249690210656755 3.5853468433359303  L 20.249690210656755 0.5455962587685104  C 20.249690210656755 0.4001039230969061  20.30359355638166 0.28059236165237644  20.411400247831473 0.1870615744349191  C 20.51920693928129 0.09353078721745955  20.656959933911608 0.04676539360872978  20.82465923172243 0.04676539360872978  L 24.27447335811648 0.04676539360872978  C 24.442172655927305 0.04676539360872978  24.57992565055762 0.09353078721745955  24.687732342007433 0.1870615744349191  C 24.79553903345725 0.28059236165237644  24.849442379182157 0.4001039230969061  24.849442379182157 0.5455962587685104  L 24.849442379182157 6.905689789555729  L 28.78438661710037 9.742790335151987  C 28.90417182982239 9.825928812678617  28.970053696819498 9.937646141855028  28.982032218091696 10.077942322681217  Z " fill-rule="evenodd" />
    </mask>
  </defs>
  <g transform="matrix(1 0 0 1 -49 -727 )">
    <path d="M 24.831474597273854 11.42634450506625  C 24.843453118546055 11.447129124447908  24.849442379182157 11.478306053520395  24.849442379182157 11.51987529228371  L 24.849442379182157 19.002338269680436  C 24.849442379182157 19.27253832164198  24.735646427096246 19.506365289685633  24.50805452292441 19.70381917381138  C 24.280462618752583 19.90127305793713  24.01094589012805 20  23.699504337050804 20  L 16.7998760842627 20  L 16.7998760842627 14.01402961808262  L 12.200123915737299 14.01402961808262  L 12.200123915737299 20  L 5.300495662949195 20  C 4.9890541098719545 20  4.719537381247419 19.90127305793713  4.491945477075588 19.70381917381138  C 4.264353572903759 19.506365289685633  4.150557620817843 19.27253832164198  4.150557620817843 19.002338269680436  L 4.150557620817843 11.51987529228371  C 4.150557620817843 11.50948298259288  4.153552251135895 11.493894518056639  4.159541511771995 11.47310989867498  C 4.165530772408096 11.452325279293323  4.1685254027261465 11.43673681475708  4.1685254027261465 11.42634450506625  L 14.5 4.037412314886984  L 24.831474597273854 11.42634450506625  Z M 28.982032218091696 10.077942322681217  C 28.9940107393639 10.218238503507404  28.952085914911198 10.340348142374642  28.85625774473358 10.444271239282932  L 27.742255266418834 11.597817614964928  C 27.646427096241226 11.691348402182387  27.52065262288311 11.748506105481944  27.364931846344486 11.769290724863602  L 27.311028500619578 11.769290724863602  C 27.15530772408096 11.769290724863602  27.029533250722846 11.732917640945699  26.933705080545227 11.660171473109898  L 14.5 2.665627435697584  L 2.0662949194547706 11.660171473109898  C 1.922552664188352 11.743309950636526  1.7788104089219332 11.779683034554429  1.6350681536555143 11.769290724863602  C 1.479347377116894 11.748506105481944  1.3535729037587776 11.691348402182387  1.2577447335811647 11.597817614964928  L 0.14374225526641884 10.444271239282932  C 0.0479140850888063 10.340348142374642  0.005989260636100828 10.218238503507404  0.017967781908302356 10.077942322681217  C 0.02994630318050401 9.937646141855028  0.0958281701776126 9.825928812678617  0.21561338289962825 9.742790335151987  L 13.13444857496902 0.40530007794232326  C 13.517761255679472 0.1351000259807722  13.972945064023131 0  14.5 0  C 15.02705493597687 0  15.482238744320531 0.1351000259807722  15.86555142503098 0.40530007794232326  L 20.249690210656755 3.5853468433359303  L 20.249690210656755 0.5455962587685104  C 20.249690210656755 0.4001039230969061  20.30359355638166 0.28059236165237644  20.411400247831473 0.1870615744349191  C 20.51920693928129 0.09353078721745955  20.656959933911608 0.04676539360872978  20.82465923172243 0.04676539360872978  L 24.27447335811648 0.04676539360872978  C 24.442172655927305 0.04676539360872978  24.57992565055762 0.09353078721745955  24.687732342007433 0.1870615744349191  C 24.79553903345725 0.28059236165237644  24.849442379182157 0.4001039230969061  24.849442379182157 0.5455962587685104  L 24.849442379182157 6.905689789555729  L 28.78438661710037 9.742790335151987  C 28.90417182982239 9.825928812678617  28.970053696819498 9.937646141855028  28.982032218091696 10.077942322681217  Z " fill-rule="nonzero" fill="rgba(184, 184, 184, 1)" stroke="none" transform="matrix(1 0 0 1 49 727 )" class="fill" />
    <path d="M 24.831474597273854 11.42634450506625  C 24.843453118546055 11.447129124447908  24.849442379182157 11.478306053520395  24.849442379182157 11.51987529228371  L 24.849442379182157 19.002338269680436  C 24.849442379182157 19.27253832164198  24.735646427096246 19.506365289685633  24.50805452292441 19.70381917381138  C 24.280462618752583 19.90127305793713  24.01094589012805 20  23.699504337050804 20  L 16.7998760842627 20  L 16.7998760842627 14.01402961808262  L 12.200123915737299 14.01402961808262  L 12.200123915737299 20  L 5.300495662949195 20  C 4.9890541098719545 20  4.719537381247419 19.90127305793713  4.491945477075588 19.70381917381138  C 4.264353572903759 19.506365289685633  4.150557620817843 19.27253832164198  4.150557620817843 19.002338269680436  L 4.150557620817843 11.51987529228371  C 4.150557620817843 11.50948298259288  4.153552251135895 11.493894518056639  4.159541511771995 11.47310989867498  C 4.165530772408096 11.452325279293323  4.1685254027261465 11.43673681475708  4.1685254027261465 11.42634450506625  L 14.5 4.037412314886984  L 24.831474597273854 11.42634450506625  Z " stroke-width="2" stroke-dasharray="0" stroke="rgba(255, 255, 255, 0)" fill="none" transform="matrix(1 0 0 1 49 727 )" class="stroke" mask="url(#Clip16)" />
    <path d="M 28.982032218091696 10.077942322681217  C 28.9940107393639 10.218238503507404  28.952085914911198 10.340348142374642  28.85625774473358 10.444271239282932  L 27.742255266418834 11.597817614964928  C 27.646427096241226 11.691348402182387  27.52065262288311 11.748506105481944  27.364931846344486 11.769290724863602  L 27.311028500619578 11.769290724863602  C 27.15530772408096 11.769290724863602  27.029533250722846 11.732917640945699  26.933705080545227 11.660171473109898  L 14.5 2.665627435697584  L 2.0662949194547706 11.660171473109898  C 1.922552664188352 11.743309950636526  1.7788104089219332 11.779683034554429  1.6350681536555143 11.769290724863602  C 1.479347377116894 11.748506105481944  1.3535729037587776 11.691348402182387  1.2577447335811647 11.597817614964928  L 0.14374225526641884 10.444271239282932  C 0.0479140850888063 10.340348142374642  0.005989260636100828 10.218238503507404  0.017967781908302356 10.077942322681217  C 0.02994630318050401 9.937646141855028  0.0958281701776126 9.825928812678617  0.21561338289962825 9.742790335151987  L 13.13444857496902 0.40530007794232326  C 13.517761255679472 0.1351000259807722  13.972945064023131 0  14.5 0  C 15.02705493597687 0  15.482238744320531 0.1351000259807722  15.86555142503098 0.40530007794232326  L 20.249690210656755 3.5853468433359303  L 20.249690210656755 0.5455962587685104  C 20.249690210656755 0.4001039230969061  20.30359355638166 0.28059236165237644  20.411400247831473 0.1870615744349191  C 20.51920693928129 0.09353078721745955  20.656959933911608 0.04676539360872978  20.82465923172243 0.04676539360872978  L 24.27447335811648 0.04676539360872978  C 24.442172655927305 0.04676539360872978  24.57992565055762 0.09353078721745955  24.687732342007433 0.1870615744349191  C 24.79553903345725 0.28059236165237644  24.849442379182157 0.4001039230969061  24.849442379182157 0.5455962587685104  L 24.849442379182157 6.905689789555729  L 28.78438661710037 9.742790335151987  C 28.90417182982239 9.825928812678617  28.970053696819498 9.937646141855028  28.982032218091696 10.077942322681217  Z " stroke-width="2" stroke-dasharray="0" stroke="rgba(255, 255, 255, 0)" fill="none" transform="matrix(1 0 0 1 49 727 )" class="stroke" mask="url(#Clip16)" />
  </g>
</svg>