<?xml version="1.0" encoding="utf-8"?>
<svg version="1.1" xmlns:xlink="http://www.w3.org/1999/xlink" width="55px" height="54px" xmlns="http://www.w3.org/2000/svg">
  <defs>
    <pattern id="BGPattern" patternUnits="userSpaceOnUse" alignment="0 0" imageRepeat="None" />
    <mask fill="white" id="Clip53">
      <path d="M 0 22  C 0 9.68  9.899999999999999 0  22.5 0  C 35.1 0  45 9.68  45 22  C 45 34.32  35.1 44  22.5 44  C 9.899999999999999 44  0 34.32  0 22  Z " fill-rule="evenodd" />
    </mask>
  </defs>
  <g transform="matrix(1 0 0 1 -22 -944 )">
    <path d="M 0 22  C 0 9.68  9.899999999999999 0  22.5 0  C 35.1 0  45 9.68  45 22  C 45 34.32  35.1 44  22.5 44  C 9.899999999999999 44  0 34.32  0 22  Z " fill-rule="nonzero" fill="rgba(0, 121, 254, 1)" stroke="none" transform="matrix(1 0 0 1 27 946 )" class="fill" />
    <path d="M 0 22  C 0 9.68  9.899999999999999 0  22.5 0  C 35.1 0  45 9.68  45 22  C 45 34.32  35.1 44  22.5 44  C 9.899999999999999 44  0 34.32  0 22  Z " stroke-width="0" stroke-dasharray="0" stroke="rgba(22, 155, 213, 0)" fill="none" transform="matrix(1 0 0 1 27 946 )" class="stroke" mask="url(#Clip53)" />
  </g>
  <style>svg { filter: drop-shadow(0px 3px 2.5px rgba(0, 0, 0, 0.19607843137254902)); }</style>
</svg>