<?xml version="1.0" encoding="utf-8"?>
<svg version="1.1" xmlns:xlink="http://www.w3.org/1999/xlink" width="29px" height="23px" xmlns="http://www.w3.org/2000/svg">
  <defs>
    <pattern id="BGPattern" patternUnits="userSpaceOnUse" alignment="0 0" imageRepeat="None" />
    <mask fill="white" id="Clip51">
      <path d="M 16.021205357142854 2.9382540809084454  C 14.586309523809524 2.3723681097705214  13.043526785714285 2.089425124201562  11.392857142857142 2.089425124201562  C 9.7421875 2.089425124201562  8.199404761904761 2.3723681097705214  6.764508928571429 2.9382540809084454  C 5.329613095238096 3.504140052046367  4.1887090773809526 4.271350839839126  3.341796875 5.239886444286728  C 2.494884672619048 6.2084220487343265  2.071428571428571 7.247693399574165  2.071428571428571 8.357700496806245  C 2.071428571428571 9.250059143600662  2.3573288690476195 10.109770522829429  2.9291294642857144 10.936834634492548  C 3.5009300595238098 11.763898746155666  4.3046875 12.482138632599952  5.3404017857142865 13.091554293825409  L 6.91015625 14.005677785663591  L 6.34375 15.376863023420865  C 6.710565476190477 15.1592145729832  7.045014880952381 14.94700733380648  7.347098214285714 14.740241305890702  L 8.059151785714285 14.234208658623137  L 8.916852678571427 14.397444996451384  C 9.758370535714285 14.549798911757751  10.583705357142858 14.62597586941093  11.392857142857142 14.62597586941093  C 13.043526785714285 14.62597586941093  14.586309523809524 14.343032883841971  16.021205357142854 13.777146912704046  C 17.45610119047619 13.211260941566122  18.597005208333336 12.444050153773361  19.443917410714285 11.475514549325762  C 20.29082961309524 10.506978944878163  20.714285714285715 9.467707594038325  20.714285714285715 8.357700496806245  C 20.714285714285715 7.247693399574165  20.29082961309524 6.2084220487343265  19.443917410714285 5.239886444286728  C 18.597005208333336 4.271350839839126  17.45610119047619 3.504140052046367  16.021205357142854 2.9382540809084454  Z M 5.672154017857142 1.1181689141234927  C 7.425316220238096 0.3727229713744967  9.332217261904763 0  11.392857142857142 0  C 13.453497023809526 0  15.360398065476192 0.3727229713744967  17.113560267857146 1.1181689141234927  C 18.8667224702381 1.8636148568724837  20.250372023809526 2.8784007570380865  21.26450892857143 4.162526614620298  C 22.278645833333336 5.446652472202505  22.785714285714285 6.84504376626449  22.785714285714285 8.357700496806245  C 22.785714285714285 9.870357227348  22.278645833333336 11.268748521409982  21.26450892857143 12.552874378992193  C 20.250372023809526 13.8370002365744  18.8667224702381 14.851786136740003  17.113560267857146 15.597232079488998  C 15.360398065476192 16.34267802223799  13.453497023809526 16.71540099361249  11.392857142857142 16.71540099361249  C 10.465029761904763 16.71540099361249  9.515625 16.62834161343742  8.544642857142858 16.4542228530873  C 7.206845238095239 17.411876035013012  5.707217261904763 18.10835107641353  4.045758928571429 18.543647977288856  C 3.657366071428571 18.641589779985807  3.1934523809523814 18.72864916016087  2.6540178571428568 18.804826117814052  L 2.60546875 18.804826117814052  C 2.486793154761905 18.804826117814052  2.3762090773809526 18.76129642772652  2.2737165178571432 18.674237047551454  C 2.1712239583333335 18.58717766737639  2.109188988095238 18.47291223089662  2.0876116071428568 18.331440738112136  C 2.076822916666667 18.298793470546485  2.071428571428571 18.263425597350366  2.071428571428571 18.225337118523775  C 2.071428571428571 18.187248639697184  2.0741257440476195 18.151880766501066  2.0795200892857144 18.119233498935415  C 2.0849144345238098 18.086586231369765  2.095703125 18.053938963804118  2.1118861607142856 18.021291696238467  L 2.15234375 17.939673527324345  C 2.15234375 17.939673527324345  2.1712239583333335 17.909746865389167  2.208984375 17.849893541518806  C 2.246744791666667 17.79004021764845  2.268322172619048 17.762834161343747  2.2737165178571432 17.768275372604684  C 2.279110863095238 17.773716583865625  2.303385416666667 17.74651052756092  2.346540178571429 17.68665720369056  C 2.3896949404761907 17.6268038798202  2.411272321428571 17.602318429145967  2.411272321428571 17.613200851667848  C 2.4652157738095237 17.54790631653655  2.5892857142857144 17.41187603501301  2.7834821428571432 17.205110007097232  C 2.977678571428571 16.998343979181453  3.117931547619048 16.837828246983676  3.204241071428571 16.723562810503903  C 3.2905505952380953 16.60929737402413  3.411923363095238 16.451502247456823  3.568359375 16.250177430801987  C 3.7247953869047628 16.048852614147147  3.859654017857143 15.839365980600897  3.972935267857143 15.621717530163238  C 4.086216517857142 15.404069079725572  4.196800595238096 15.164655784244147  4.3046875 14.903477643718949  C 2.9668898809523805 14.119943222143364  1.9149925595238095 13.156848828956706  1.1489955357142856 12.014194464158978  C 0.38299851190476186 10.87154009936125  0 9.652708776910337  0 8.357700496806245  C 0 6.84504376626449  0.5070684523809524 5.446652472202505  1.5212053571428572 4.162526614620298  C 2.5353422619047623 2.8784007570380865  3.9189918154761902 1.8636148568724837  5.672154017857142 1.1181689141234927  Z M 27.851004464285715 16.20120652945351  C 27.085007440476193 17.338419682990303  26.033110119047624 18.298793470546485  24.6953125 19.082327892122073  C 24.8031994047619 19.343506032647266  24.913783482142854 19.582919328128696  25.027064732142854 19.800567778566357  C 25.14034598214286 20.01821622900402  25.27520461309524 20.227702862550274  25.431640625 20.429027679205113  C 25.588076636904763 20.630352495859945  25.709449404761905 20.788147622427253  25.79575892857143 20.902413058907026  C 25.882068452380956 21.0166784953868  26.022321428571434 21.177194227584575  26.216517857142854 21.383960255500355  C 26.41071428571429 21.590726283416135  26.534784226190478 21.726756564939674  26.58872767857143 21.79205110007097  C 26.599516369047624 21.80293352259286  26.621093750000004 21.827418973267093  26.65345982142857 21.865507452093684  C 26.685825892857146 21.90359593092027  26.710100446428573 21.930801987224985  26.726283482142854 21.947125621007807  C 26.742466517857146 21.963449254790632  26.764043898809526 21.990655311095338  26.791015625 22.028743789921933  C 26.817987351190478 22.06683226874852  26.83686755952381 22.0967589306837  26.84765625 22.118523775727464  L 26.888113839285715 22.20014194464159  C 26.888113839285715 22.20014194464159  26.898902529761905 22.232789212207237  26.920479910714285 22.298083747338538  C 26.942057291666668 22.363378282469835  26.944754464285715 22.398746155665958  26.92857142857143 22.404187366926898  C 26.912388392857146 22.40962857818784  26.90699404761905 22.44499645138396  26.912388392857146 22.51029098651526  C 26.88002232142857 22.662644901821622  26.809895833333336 22.78235154956234  26.70200892857143 22.869410929737402  C 26.594122023809526 22.956470309912465  26.47544642857143 22.99455878873906  26.345982142857146 22.983676366217175  C 25.806547619047624 22.907499408563993  25.342633928571434 22.820440028388926  24.95424107142857 22.722498225691982  C 23.29278273809524 22.287201324816653  21.793154761904763 21.590726283416135  20.455357142857146 20.633073101490417  C 19.484375 20.80719186184055  18.53497023809524 20.894251242015613  17.607142857142854 20.894251242015613  C 14.683407738095239 20.894251242015613  12.137276785714285 20.176011355571326  9.96875 18.739531582682755  C 10.59449404761905 18.783061272770286  11.069196428571427 18.804826117814052  11.392857142857142 18.804826117814052  C 13.12983630952381 18.804826117814052  14.796688988095239 18.55997161107168  16.39341517857143 18.07026259758694  C 17.99014136904762 17.5805535841022  19.414248511904763 16.87863733144074  20.665736607142854 15.964513839602557  C 22.014322916666668 14.963330967589306  23.050037202380956 13.809794180269694  23.772879464285715 12.50390347764372  C 24.495721726190474 11.198012775017743  24.857142857142854 9.815945114738582  24.857142857142854 8.357700496806245  C 24.857142857142854 7.519753962621244  24.733072916666664 6.692689850958126  24.484933035714285 5.876508161816891  C 25.876674107142854 6.649160160870593  26.977120535714285 7.617695765318191  27.78627232142857 8.782114975159688  C 28.595424107142854 9.946534185001182  29 11.198012775017743  29 12.536550745209368  C 29 13.842441447835343  28.61700148809524 15.063993375916723  27.851004464285715 16.20120652945351  Z " fill-rule="evenodd" />
    </mask>
  </defs>
  <g transform="matrix(1 0 0 1 -179 -1570 )">
    <path d="M 16.021205357142854 2.9382540809084454  C 14.586309523809524 2.3723681097705214  13.043526785714285 2.089425124201562  11.392857142857142 2.089425124201562  C 9.7421875 2.089425124201562  8.199404761904761 2.3723681097705214  6.764508928571429 2.9382540809084454  C 5.329613095238096 3.504140052046367  4.1887090773809526 4.271350839839126  3.341796875 5.239886444286728  C 2.494884672619048 6.2084220487343265  2.071428571428571 7.247693399574165  2.071428571428571 8.357700496806245  C 2.071428571428571 9.250059143600662  2.3573288690476195 10.109770522829429  2.9291294642857144 10.936834634492548  C 3.5009300595238098 11.763898746155666  4.3046875 12.482138632599952  5.3404017857142865 13.091554293825409  L 6.91015625 14.005677785663591  L 6.34375 15.376863023420865  C 6.710565476190477 15.1592145729832  7.045014880952381 14.94700733380648  7.347098214285714 14.740241305890702  L 8.059151785714285 14.234208658623137  L 8.916852678571427 14.397444996451384  C 9.758370535714285 14.549798911757751  10.583705357142858 14.62597586941093  11.392857142857142 14.62597586941093  C 13.043526785714285 14.62597586941093  14.586309523809524 14.343032883841971  16.021205357142854 13.777146912704046  C 17.45610119047619 13.211260941566122  18.597005208333336 12.444050153773361  19.443917410714285 11.475514549325762  C 20.29082961309524 10.506978944878163  20.714285714285715 9.467707594038325  20.714285714285715 8.357700496806245  C 20.714285714285715 7.247693399574165  20.29082961309524 6.2084220487343265  19.443917410714285 5.239886444286728  C 18.597005208333336 4.271350839839126  17.45610119047619 3.504140052046367  16.021205357142854 2.9382540809084454  Z M 5.672154017857142 1.1181689141234927  C 7.425316220238096 0.3727229713744967  9.332217261904763 0  11.392857142857142 0  C 13.453497023809526 0  15.360398065476192 0.3727229713744967  17.113560267857146 1.1181689141234927  C 18.8667224702381 1.8636148568724837  20.250372023809526 2.8784007570380865  21.26450892857143 4.162526614620298  C 22.278645833333336 5.446652472202505  22.785714285714285 6.84504376626449  22.785714285714285 8.357700496806245  C 22.785714285714285 9.870357227348  22.278645833333336 11.268748521409982  21.26450892857143 12.552874378992193  C 20.250372023809526 13.8370002365744  18.8667224702381 14.851786136740003  17.113560267857146 15.597232079488998  C 15.360398065476192 16.34267802223799  13.453497023809526 16.71540099361249  11.392857142857142 16.71540099361249  C 10.465029761904763 16.71540099361249  9.515625 16.62834161343742  8.544642857142858 16.4542228530873  C 7.206845238095239 17.411876035013012  5.707217261904763 18.10835107641353  4.045758928571429 18.543647977288856  C 3.657366071428571 18.641589779985807  3.1934523809523814 18.72864916016087  2.6540178571428568 18.804826117814052  L 2.60546875 18.804826117814052  C 2.486793154761905 18.804826117814052  2.3762090773809526 18.76129642772652  2.2737165178571432 18.674237047551454  C 2.1712239583333335 18.58717766737639  2.109188988095238 18.47291223089662  2.0876116071428568 18.331440738112136  C 2.076822916666667 18.298793470546485  2.071428571428571 18.263425597350366  2.071428571428571 18.225337118523775  C 2.071428571428571 18.187248639697184  2.0741257440476195 18.151880766501066  2.0795200892857144 18.119233498935415  C 2.0849144345238098 18.086586231369765  2.095703125 18.053938963804118  2.1118861607142856 18.021291696238467  L 2.15234375 17.939673527324345  C 2.15234375 17.939673527324345  2.1712239583333335 17.909746865389167  2.208984375 17.849893541518806  C 2.246744791666667 17.79004021764845  2.268322172619048 17.762834161343747  2.2737165178571432 17.768275372604684  C 2.279110863095238 17.773716583865625  2.303385416666667 17.74651052756092  2.346540178571429 17.68665720369056  C 2.3896949404761907 17.6268038798202  2.411272321428571 17.602318429145967  2.411272321428571 17.613200851667848  C 2.4652157738095237 17.54790631653655  2.5892857142857144 17.41187603501301  2.7834821428571432 17.205110007097232  C 2.977678571428571 16.998343979181453  3.117931547619048 16.837828246983676  3.204241071428571 16.723562810503903  C 3.2905505952380953 16.60929737402413  3.411923363095238 16.451502247456823  3.568359375 16.250177430801987  C 3.7247953869047628 16.048852614147147  3.859654017857143 15.839365980600897  3.972935267857143 15.621717530163238  C 4.086216517857142 15.404069079725572  4.196800595238096 15.164655784244147  4.3046875 14.903477643718949  C 2.9668898809523805 14.119943222143364  1.9149925595238095 13.156848828956706  1.1489955357142856 12.014194464158978  C 0.38299851190476186 10.87154009936125  0 9.652708776910337  0 8.357700496806245  C 0 6.84504376626449  0.5070684523809524 5.446652472202505  1.5212053571428572 4.162526614620298  C 2.5353422619047623 2.8784007570380865  3.9189918154761902 1.8636148568724837  5.672154017857142 1.1181689141234927  Z M 27.851004464285715 16.20120652945351  C 27.085007440476193 17.338419682990303  26.033110119047624 18.298793470546485  24.6953125 19.082327892122073  C 24.8031994047619 19.343506032647266  24.913783482142854 19.582919328128696  25.027064732142854 19.800567778566357  C 25.14034598214286 20.01821622900402  25.27520461309524 20.227702862550274  25.431640625 20.429027679205113  C 25.588076636904763 20.630352495859945  25.709449404761905 20.788147622427253  25.79575892857143 20.902413058907026  C 25.882068452380956 21.0166784953868  26.022321428571434 21.177194227584575  26.216517857142854 21.383960255500355  C 26.41071428571429 21.590726283416135  26.534784226190478 21.726756564939674  26.58872767857143 21.79205110007097  C 26.599516369047624 21.80293352259286  26.621093750000004 21.827418973267093  26.65345982142857 21.865507452093684  C 26.685825892857146 21.90359593092027  26.710100446428573 21.930801987224985  26.726283482142854 21.947125621007807  C 26.742466517857146 21.963449254790632  26.764043898809526 21.990655311095338  26.791015625 22.028743789921933  C 26.817987351190478 22.06683226874852  26.83686755952381 22.0967589306837  26.84765625 22.118523775727464  L 26.888113839285715 22.20014194464159  C 26.888113839285715 22.20014194464159  26.898902529761905 22.232789212207237  26.920479910714285 22.298083747338538  C 26.942057291666668 22.363378282469835  26.944754464285715 22.398746155665958  26.92857142857143 22.404187366926898  C 26.912388392857146 22.40962857818784  26.90699404761905 22.44499645138396  26.912388392857146 22.51029098651526  C 26.88002232142857 22.662644901821622  26.809895833333336 22.78235154956234  26.70200892857143 22.869410929737402  C 26.594122023809526 22.956470309912465  26.47544642857143 22.99455878873906  26.345982142857146 22.983676366217175  C 25.806547619047624 22.907499408563993  25.342633928571434 22.820440028388926  24.95424107142857 22.722498225691982  C 23.29278273809524 22.287201324816653  21.793154761904763 21.590726283416135  20.455357142857146 20.633073101490417  C 19.484375 20.80719186184055  18.53497023809524 20.894251242015613  17.607142857142854 20.894251242015613  C 14.683407738095239 20.894251242015613  12.137276785714285 20.176011355571326  9.96875 18.739531582682755  C 10.59449404761905 18.783061272770286  11.069196428571427 18.804826117814052  11.392857142857142 18.804826117814052  C 13.12983630952381 18.804826117814052  14.796688988095239 18.55997161107168  16.39341517857143 18.07026259758694  C 17.99014136904762 17.5805535841022  19.414248511904763 16.87863733144074  20.665736607142854 15.964513839602557  C 22.014322916666668 14.963330967589306  23.050037202380956 13.809794180269694  23.772879464285715 12.50390347764372  C 24.495721726190474 11.198012775017743  24.857142857142854 9.815945114738582  24.857142857142854 8.357700496806245  C 24.857142857142854 7.519753962621244  24.733072916666664 6.692689850958126  24.484933035714285 5.876508161816891  C 25.876674107142854 6.649160160870593  26.977120535714285 7.617695765318191  27.78627232142857 8.782114975159688  C 28.595424107142854 9.946534185001182  29 11.198012775017743  29 12.536550745209368  C 29 13.842441447835343  28.61700148809524 15.063993375916723  27.851004464285715 16.20120652945351  Z " fill-rule="nonzero" fill="rgba(0, 121, 254, 1)" stroke="none" transform="matrix(1 0 0 1 179 1570 )" class="fill" />
    <path d="M 16.021205357142854 2.9382540809084454  C 14.586309523809524 2.3723681097705214  13.043526785714285 2.089425124201562  11.392857142857142 2.089425124201562  C 9.7421875 2.089425124201562  8.199404761904761 2.3723681097705214  6.764508928571429 2.9382540809084454  C 5.329613095238096 3.504140052046367  4.1887090773809526 4.271350839839126  3.341796875 5.239886444286728  C 2.494884672619048 6.2084220487343265  2.071428571428571 7.247693399574165  2.071428571428571 8.357700496806245  C 2.071428571428571 9.250059143600662  2.3573288690476195 10.109770522829429  2.9291294642857144 10.936834634492548  C 3.5009300595238098 11.763898746155666  4.3046875 12.482138632599952  5.3404017857142865 13.091554293825409  L 6.91015625 14.005677785663591  L 6.34375 15.376863023420865  C 6.710565476190477 15.1592145729832  7.045014880952381 14.94700733380648  7.347098214285714 14.740241305890702  L 8.059151785714285 14.234208658623137  L 8.916852678571427 14.397444996451384  C 9.758370535714285 14.549798911757751  10.583705357142858 14.62597586941093  11.392857142857142 14.62597586941093  C 13.043526785714285 14.62597586941093  14.586309523809524 14.343032883841971  16.021205357142854 13.777146912704046  C 17.45610119047619 13.211260941566122  18.597005208333336 12.444050153773361  19.443917410714285 11.475514549325762  C 20.29082961309524 10.506978944878163  20.714285714285715 9.467707594038325  20.714285714285715 8.357700496806245  C 20.714285714285715 7.247693399574165  20.29082961309524 6.2084220487343265  19.443917410714285 5.239886444286728  C 18.597005208333336 4.271350839839126  17.45610119047619 3.504140052046367  16.021205357142854 2.9382540809084454  Z " stroke-width="2" stroke-dasharray="0" stroke="rgba(255, 255, 255, 0)" fill="none" transform="matrix(1 0 0 1 179 1570 )" class="stroke" mask="url(#Clip51)" />
    <path d="M 5.672154017857142 1.1181689141234927  C 7.425316220238096 0.3727229713744967  9.332217261904763 0  11.392857142857142 0  C 13.453497023809526 0  15.360398065476192 0.3727229713744967  17.113560267857146 1.1181689141234927  C 18.8667224702381 1.8636148568724837  20.250372023809526 2.8784007570380865  21.26450892857143 4.162526614620298  C 22.278645833333336 5.446652472202505  22.785714285714285 6.84504376626449  22.785714285714285 8.357700496806245  C 22.785714285714285 9.870357227348  22.278645833333336 11.268748521409982  21.26450892857143 12.552874378992193  C 20.250372023809526 13.8370002365744  18.8667224702381 14.851786136740003  17.113560267857146 15.597232079488998  C 15.360398065476192 16.34267802223799  13.453497023809526 16.71540099361249  11.392857142857142 16.71540099361249  C 10.465029761904763 16.71540099361249  9.515625 16.62834161343742  8.544642857142858 16.4542228530873  C 7.206845238095239 17.411876035013012  5.707217261904763 18.10835107641353  4.045758928571429 18.543647977288856  C 3.657366071428571 18.641589779985807  3.1934523809523814 18.72864916016087  2.6540178571428568 18.804826117814052  L 2.60546875 18.804826117814052  C 2.486793154761905 18.804826117814052  2.3762090773809526 18.76129642772652  2.2737165178571432 18.674237047551454  C 2.1712239583333335 18.58717766737639  2.109188988095238 18.47291223089662  2.0876116071428568 18.331440738112136  C 2.076822916666667 18.298793470546485  2.071428571428571 18.263425597350366  2.071428571428571 18.225337118523775  C 2.071428571428571 18.187248639697184  2.0741257440476195 18.151880766501066  2.0795200892857144 18.119233498935415  C 2.0849144345238098 18.086586231369765  2.095703125 18.053938963804118  2.1118861607142856 18.021291696238467  L 2.15234375 17.939673527324345  C 2.15234375 17.939673527324345  2.1712239583333335 17.909746865389167  2.208984375 17.849893541518806  C 2.246744791666667 17.79004021764845  2.268322172619048 17.762834161343747  2.2737165178571432 17.768275372604684  C 2.279110863095238 17.773716583865625  2.303385416666667 17.74651052756092  2.346540178571429 17.68665720369056  C 2.3896949404761907 17.6268038798202  2.411272321428571 17.602318429145967  2.411272321428571 17.613200851667848  C 2.4652157738095237 17.54790631653655  2.5892857142857144 17.41187603501301  2.7834821428571432 17.205110007097232  C 2.977678571428571 16.998343979181453  3.117931547619048 16.837828246983676  3.204241071428571 16.723562810503903  C 3.2905505952380953 16.60929737402413  3.411923363095238 16.451502247456823  3.568359375 16.250177430801987  C 3.7247953869047628 16.048852614147147  3.859654017857143 15.839365980600897  3.972935267857143 15.621717530163238  C 4.086216517857142 15.404069079725572  4.196800595238096 15.164655784244147  4.3046875 14.903477643718949  C 2.9668898809523805 14.119943222143364  1.9149925595238095 13.156848828956706  1.1489955357142856 12.014194464158978  C 0.38299851190476186 10.87154009936125  0 9.652708776910337  0 8.357700496806245  C 0 6.84504376626449  0.5070684523809524 5.446652472202505  1.5212053571428572 4.162526614620298  C 2.5353422619047623 2.8784007570380865  3.9189918154761902 1.8636148568724837  5.672154017857142 1.1181689141234927  Z " stroke-width="2" stroke-dasharray="0" stroke="rgba(255, 255, 255, 0)" fill="none" transform="matrix(1 0 0 1 179 1570 )" class="stroke" mask="url(#Clip51)" />
    <path d="M 27.851004464285715 16.20120652945351  C 27.085007440476193 17.338419682990303  26.033110119047624 18.298793470546485  24.6953125 19.082327892122073  C 24.8031994047619 19.343506032647266  24.913783482142854 19.582919328128696  25.027064732142854 19.800567778566357  C 25.14034598214286 20.01821622900402  25.27520461309524 20.227702862550274  25.431640625 20.429027679205113  C 25.588076636904763 20.630352495859945  25.709449404761905 20.788147622427253  25.79575892857143 20.902413058907026  C 25.882068452380956 21.0166784953868  26.022321428571434 21.177194227584575  26.216517857142854 21.383960255500355  C 26.41071428571429 21.590726283416135  26.534784226190478 21.726756564939674  26.58872767857143 21.79205110007097  C 26.599516369047624 21.80293352259286  26.621093750000004 21.827418973267093  26.65345982142857 21.865507452093684  C 26.685825892857146 21.90359593092027  26.710100446428573 21.930801987224985  26.726283482142854 21.947125621007807  C 26.742466517857146 21.963449254790632  26.764043898809526 21.990655311095338  26.791015625 22.028743789921933  C 26.817987351190478 22.06683226874852  26.83686755952381 22.0967589306837  26.84765625 22.118523775727464  L 26.888113839285715 22.20014194464159  C 26.888113839285715 22.20014194464159  26.898902529761905 22.232789212207237  26.920479910714285 22.298083747338538  C 26.942057291666668 22.363378282469835  26.944754464285715 22.398746155665958  26.92857142857143 22.404187366926898  C 26.912388392857146 22.40962857818784  26.90699404761905 22.44499645138396  26.912388392857146 22.51029098651526  C 26.88002232142857 22.662644901821622  26.809895833333336 22.78235154956234  26.70200892857143 22.869410929737402  C 26.594122023809526 22.956470309912465  26.47544642857143 22.99455878873906  26.345982142857146 22.983676366217175  C 25.806547619047624 22.907499408563993  25.342633928571434 22.820440028388926  24.95424107142857 22.722498225691982  C 23.29278273809524 22.287201324816653  21.793154761904763 21.590726283416135  20.455357142857146 20.633073101490417  C 19.484375 20.80719186184055  18.53497023809524 20.894251242015613  17.607142857142854 20.894251242015613  C 14.683407738095239 20.894251242015613  12.137276785714285 20.176011355571326  9.96875 18.739531582682755  C 10.59449404761905 18.783061272770286  11.069196428571427 18.804826117814052  11.392857142857142 18.804826117814052  C 13.12983630952381 18.804826117814052  14.796688988095239 18.55997161107168  16.39341517857143 18.07026259758694  C 17.99014136904762 17.5805535841022  19.414248511904763 16.87863733144074  20.665736607142854 15.964513839602557  C 22.014322916666668 14.963330967589306  23.050037202380956 13.809794180269694  23.772879464285715 12.50390347764372  C 24.495721726190474 11.198012775017743  24.857142857142854 9.815945114738582  24.857142857142854 8.357700496806245  C 24.857142857142854 7.519753962621244  24.733072916666664 6.692689850958126  24.484933035714285 5.876508161816891  C 25.876674107142854 6.649160160870593  26.977120535714285 7.617695765318191  27.78627232142857 8.782114975159688  C 28.595424107142854 9.946534185001182  29 11.198012775017743  29 12.536550745209368  C 29 13.842441447835343  28.61700148809524 15.063993375916723  27.851004464285715 16.20120652945351  Z " stroke-width="2" stroke-dasharray="0" stroke="rgba(255, 255, 255, 0)" fill="none" transform="matrix(1 0 0 1 179 1570 )" class="stroke" mask="url(#Clip51)" />
  </g>
</svg>