<?xml version="1.0" encoding="utf-8"?>
<svg version="1.1" xmlns:xlink="http://www.w3.org/1999/xlink" width="30px" height="24px" xmlns="http://www.w3.org/2000/svg">
  <defs>
    <pattern id="BGPattern" patternUnits="userSpaceOnUse" alignment="0 0" imageRepeat="None" />
    <mask fill="white" id="Clip58">
      <path d="M 8.1298828125 6.683453237410073  C 8.374023437500002 6.448441247002396  8.49609375 6.1342925659472405  8.49609375 5.741007194244603  C 8.49609375 5.347721822541963  8.374023437500002 5.031175059952037  8.1298828125 4.79136690647482  C 7.885742187500001 4.551558752997602  7.563476562500001 4.431654676258992  7.1630859375 4.431654676258992  C 6.743164062500001 4.431654676258992  6.3720703125 4.553956834532375  6.0498046875 4.798561151079136  C 5.7275390625 5.0431654676259  5.56640625 5.357314148681053  5.56640625 5.741007194244603  C 5.56640625 6.115107913669064  5.7275390625 6.424460431654676  6.0498046875 6.66906474820144  C 6.3720703125 6.913669064748201  6.743164062500001 7.035971223021582  7.1630859375 7.035971223021582  C 7.563476562500001 7.035971223021582  7.885742187500001 6.9184652278177445  8.1298828125 6.683453237410073  Z M 19.00634765625 13.76978417266187  C 19.25537109375 13.558752997601916  19.3798828125 13.314148681055155  19.3798828125 13.035971223021582  C 19.3798828125 12.767386091127095  19.25537109375 12.52757793764988  19.00634765625 12.316546762589926  C 18.75732421875 12.105515587529975  18.4375 12  18.046875 12  C 17.783203125 12  17.54150390625 12.10791366906475  17.32177734375 12.323741007194245  C 17.10205078125 12.53956834532374  16.9921875 12.776978417266188  16.9921875 13.035971223021582  C 16.9921875 13.304556354916068  17.10205078125 13.546762589928056  17.32177734375 13.762589928057555  C 17.54150390625 13.978417266187051  17.783203125 14.086330935251798  18.046875 14.086330935251798  C 18.4375 14.086330935251798  18.75732421875 13.980815347721823  19.00634765625 13.76978417266187  Z M 15.56396484375 6.683453237410073  C 15.803222656250002 6.448441247002396  15.9228515625 6.1342925659472405  15.9228515625 5.741007194244603  C 15.9228515625 5.347721822541963  15.803222656250002 5.031175059952037  15.56396484375 4.79136690647482  C 15.324707031250002 4.551558752997602  15.004882812500002 4.431654676258992  14.6044921875 4.431654676258992  C 14.184570312500002 4.431654676258992  13.813476562500002 4.553956834532375  13.4912109375 4.798561151079136  C 13.168945312500002 5.0431654676259  13.007812500000002 5.357314148681053  13.0078125 5.741007194244603  C 13.007812500000002 6.115107913669064  13.168945312500002 6.424460431654676  13.4912109375 6.66906474820144  C 13.813476562500002 6.913669064748201  14.184570312500002 7.035971223021582  14.6044921875 7.035971223021582  C 15.004882812500002 7.035971223021582  15.324707031250002 6.9184652278177445  15.56396484375 6.683453237410073  Z M 24.84375 13.76978417266187  C 25.097656250000004 13.558752997601916  25.224609375000004 13.314148681055155  25.224609375 13.035971223021582  C 25.224609375000004 12.767386091127095  25.097656250000004 12.52757793764988  24.84375 12.316546762589926  C 24.58984375 12.105515587529975  24.2724609375 12  23.8916015625 12  C 23.6279296875 12  23.38623046875 12.10791366906475  23.16650390625 12.323741007194245  C 22.94677734375 12.53956834532374  22.8369140625 12.776978417266188  22.8369140625 13.035971223021582  C 22.8369140625 13.304556354916068  22.94677734375 13.546762589928056  23.16650390625 13.762589928057555  C 23.38623046875 13.978417266187051  23.6279296875 14.086330935251798  23.8916015625 14.086330935251798  C 24.2724609375 14.086330935251798  24.58984375 13.980815347721823  24.84375 13.76978417266187  Z M 19.32861328125 3.575539568345323  C 20.358886718750004 4.693045563549159  21.025390625000004 5.942446043165468  21.328125 7.323741007194244  C 21.025390625000004 7.285371702637889  20.68359375 7.266187050359712  20.302734375 7.266187050359712  C 18.652343750000004 7.266187050359712  17.1337890625 7.635491606714627  15.7470703125 8.374100719424462  C 14.360351562500002 9.112709832134291  13.269042968750002 10.112709832134293  12.47314453125 11.374100719424462  C 11.677246093750002 12.635491606714627  11.279296875 14.014388489208631  11.279296875 15.510791366906474  C 11.279296875 16.258992805755398  11.391601562500002 16.988009592326136  11.6162109375 17.697841726618705  C 11.274414062500002 17.726618705035975  10.9423828125 17.741007194244606  10.6201171875 17.741007194244606  C 10.366210937500002 17.741007194244606  10.1220703125 17.73381294964029  9.8876953125 17.719424460431654  C 9.6533203125 17.70503597122302  9.384765625000002 17.67386091127098  9.08203125 17.62589928057554  C 8.779296875 17.5779376498801  8.56201171875 17.544364508393286  8.43017578125 17.52517985611511  C 8.29833984375 17.505995203836925  8.0322265625 17.455635491606714  7.6318359375 17.37410071942446  C 7.231445312500001 17.292565947242203  6.987304687500001 17.242206235011988  6.8994140625 17.223021582733814  L 3.193359375 19.050359712230215  L 4.248046875 15.913669064748202  C 1.4160156249999998 13.966426858513188  0 11.61630695443645  0 8.863309352517987  C 0 7.24220623501199  0.47607421875 5.75059952038369  1.42822265625 4.388489208633093  C 2.3803710937500004 3.026378896882493  3.6694335937500004 1.9544364508393262  5.29541015625 1.1726618705035978  C 6.921386718750001 0.39088729016786417  8.696289062500002 0  10.6201171875 0  C 12.3388671875 0  13.962402343750002 0.31654676258992875  15.49072265625 0.9496402877697836  C 17.019042968750004 1.582733812949641  18.29833984375 2.4580335731414866  19.32861328125 3.575539568345323  Z M 28.74755859375 11.60431654676259  C 29.58251953125 12.769784172661872  30 14.03357314148681  30 15.39568345323741  C 30 16.517985611510788  29.66552734375 17.589928057553955  28.99658203125 18.611510791366904  C 28.327636718750004 19.633093525179856  27.421875000000004 20.561151079136692  26.279296875 21.39568345323741  L 27.0849609375 24  L 24.169921875 22.431654676258994  C 22.705078125 22.786570743405278  21.640625000000004 22.964028776978417  20.9765625 22.964028776978417  C 19.326171875000004 22.964028776978417  17.8076171875 22.62589928057554  16.4208984375 21.949640287769782  C 15.034179687500002 21.27338129496403  13.94287109375 20.354916067146284  13.14697265625 19.194244604316548  C 12.351074218750002 18.03357314148681  11.953125000000002 16.767386091127097  11.953125 15.39568345323741  C 11.953125000000002 14.02398081534772  12.351074218750002 12.757793764988008  13.14697265625 11.597122302158272  C 13.94287109375 10.436450839328536  15.034179687500002 9.517985611510792  16.4208984375 8.841726618705037  C 17.8076171875 8.16546762589928  19.326171875000004 7.827338129496402  20.9765625 7.827338129496402  C 22.548828125000004 7.827338129496402  24.028320312500004 8.16546762589928  25.4150390625 8.841726618705037  C 26.8017578125 9.517985611510792  27.91259765625 10.438848920863308  28.74755859375 11.60431654676259  Z " fill-rule="evenodd" />
    </mask>
  </defs>
  <g transform="matrix(1 0 0 1 -129 -939 )">
    <path d="M 8.1298828125 6.683453237410073  C 8.374023437500002 6.448441247002396  8.49609375 6.1342925659472405  8.49609375 5.741007194244603  C 8.49609375 5.347721822541963  8.374023437500002 5.031175059952037  8.1298828125 4.79136690647482  C 7.885742187500001 4.551558752997602  7.563476562500001 4.431654676258992  7.1630859375 4.431654676258992  C 6.743164062500001 4.431654676258992  6.3720703125 4.553956834532375  6.0498046875 4.798561151079136  C 5.7275390625 5.0431654676259  5.56640625 5.357314148681053  5.56640625 5.741007194244603  C 5.56640625 6.115107913669064  5.7275390625 6.424460431654676  6.0498046875 6.66906474820144  C 6.3720703125 6.913669064748201  6.743164062500001 7.035971223021582  7.1630859375 7.035971223021582  C 7.563476562500001 7.035971223021582  7.885742187500001 6.9184652278177445  8.1298828125 6.683453237410073  Z M 19.00634765625 13.76978417266187  C 19.25537109375 13.558752997601916  19.3798828125 13.314148681055155  19.3798828125 13.035971223021582  C 19.3798828125 12.767386091127095  19.25537109375 12.52757793764988  19.00634765625 12.316546762589926  C 18.75732421875 12.105515587529975  18.4375 12  18.046875 12  C 17.783203125 12  17.54150390625 12.10791366906475  17.32177734375 12.323741007194245  C 17.10205078125 12.53956834532374  16.9921875 12.776978417266188  16.9921875 13.035971223021582  C 16.9921875 13.304556354916068  17.10205078125 13.546762589928056  17.32177734375 13.762589928057555  C 17.54150390625 13.978417266187051  17.783203125 14.086330935251798  18.046875 14.086330935251798  C 18.4375 14.086330935251798  18.75732421875 13.980815347721823  19.00634765625 13.76978417266187  Z M 15.56396484375 6.683453237410073  C 15.803222656250002 6.448441247002396  15.9228515625 6.1342925659472405  15.9228515625 5.741007194244603  C 15.9228515625 5.347721822541963  15.803222656250002 5.031175059952037  15.56396484375 4.79136690647482  C 15.324707031250002 4.551558752997602  15.004882812500002 4.431654676258992  14.6044921875 4.431654676258992  C 14.184570312500002 4.431654676258992  13.813476562500002 4.553956834532375  13.4912109375 4.798561151079136  C 13.168945312500002 5.0431654676259  13.007812500000002 5.357314148681053  13.0078125 5.741007194244603  C 13.007812500000002 6.115107913669064  13.168945312500002 6.424460431654676  13.4912109375 6.66906474820144  C 13.813476562500002 6.913669064748201  14.184570312500002 7.035971223021582  14.6044921875 7.035971223021582  C 15.004882812500002 7.035971223021582  15.324707031250002 6.9184652278177445  15.56396484375 6.683453237410073  Z M 24.84375 13.76978417266187  C 25.097656250000004 13.558752997601916  25.224609375000004 13.314148681055155  25.224609375 13.035971223021582  C 25.224609375000004 12.767386091127095  25.097656250000004 12.52757793764988  24.84375 12.316546762589926  C 24.58984375 12.105515587529975  24.2724609375 12  23.8916015625 12  C 23.6279296875 12  23.38623046875 12.10791366906475  23.16650390625 12.323741007194245  C 22.94677734375 12.53956834532374  22.8369140625 12.776978417266188  22.8369140625 13.035971223021582  C 22.8369140625 13.304556354916068  22.94677734375 13.546762589928056  23.16650390625 13.762589928057555  C 23.38623046875 13.978417266187051  23.6279296875 14.086330935251798  23.8916015625 14.086330935251798  C 24.2724609375 14.086330935251798  24.58984375 13.980815347721823  24.84375 13.76978417266187  Z M 19.32861328125 3.575539568345323  C 20.358886718750004 4.693045563549159  21.025390625000004 5.942446043165468  21.328125 7.323741007194244  C 21.025390625000004 7.285371702637889  20.68359375 7.266187050359712  20.302734375 7.266187050359712  C 18.652343750000004 7.266187050359712  17.1337890625 7.635491606714627  15.7470703125 8.374100719424462  C 14.360351562500002 9.112709832134291  13.269042968750002 10.112709832134293  12.47314453125 11.374100719424462  C 11.677246093750002 12.635491606714627  11.279296875 14.014388489208631  11.279296875 15.510791366906474  C 11.279296875 16.258992805755398  11.391601562500002 16.988009592326136  11.6162109375 17.697841726618705  C 11.274414062500002 17.726618705035975  10.9423828125 17.741007194244606  10.6201171875 17.741007194244606  C 10.366210937500002 17.741007194244606  10.1220703125 17.73381294964029  9.8876953125 17.719424460431654  C 9.6533203125 17.70503597122302  9.384765625000002 17.67386091127098  9.08203125 17.62589928057554  C 8.779296875 17.5779376498801  8.56201171875 17.544364508393286  8.43017578125 17.52517985611511  C 8.29833984375 17.505995203836925  8.0322265625 17.455635491606714  7.6318359375 17.37410071942446  C 7.231445312500001 17.292565947242203  6.987304687500001 17.242206235011988  6.8994140625 17.223021582733814  L 3.193359375 19.050359712230215  L 4.248046875 15.913669064748202  C 1.4160156249999998 13.966426858513188  0 11.61630695443645  0 8.863309352517987  C 0 7.24220623501199  0.47607421875 5.75059952038369  1.42822265625 4.388489208633093  C 2.3803710937500004 3.026378896882493  3.6694335937500004 1.9544364508393262  5.29541015625 1.1726618705035978  C 6.921386718750001 0.39088729016786417  8.696289062500002 0  10.6201171875 0  C 12.3388671875 0  13.962402343750002 0.31654676258992875  15.49072265625 0.9496402877697836  C 17.019042968750004 1.582733812949641  18.29833984375 2.4580335731414866  19.32861328125 3.575539568345323  Z M 28.74755859375 11.60431654676259  C 29.58251953125 12.769784172661872  30 14.03357314148681  30 15.39568345323741  C 30 16.517985611510788  29.66552734375 17.589928057553955  28.99658203125 18.611510791366904  C 28.327636718750004 19.633093525179856  27.421875000000004 20.561151079136692  26.279296875 21.39568345323741  L 27.0849609375 24  L 24.169921875 22.431654676258994  C 22.705078125 22.786570743405278  21.640625000000004 22.964028776978417  20.9765625 22.964028776978417  C 19.326171875000004 22.964028776978417  17.8076171875 22.62589928057554  16.4208984375 21.949640287769782  C 15.034179687500002 21.27338129496403  13.94287109375 20.354916067146284  13.14697265625 19.194244604316548  C 12.351074218750002 18.03357314148681  11.953125000000002 16.767386091127097  11.953125 15.39568345323741  C 11.953125000000002 14.02398081534772  12.351074218750002 12.757793764988008  13.14697265625 11.597122302158272  C 13.94287109375 10.436450839328536  15.034179687500002 9.517985611510792  16.4208984375 8.841726618705037  C 17.8076171875 8.16546762589928  19.326171875000004 7.827338129496402  20.9765625 7.827338129496402  C 22.548828125000004 7.827338129496402  24.028320312500004 8.16546762589928  25.4150390625 8.841726618705037  C 26.8017578125 9.517985611510792  27.91259765625 10.438848920863308  28.74755859375 11.60431654676259  Z " fill-rule="nonzero" fill="rgba(0, 0, 0, 0.8)" stroke="none" transform="matrix(1 0 0 1 129 939 )" class="fill" />
    <path d="M 8.1298828125 6.683453237410073  C 8.374023437500002 6.448441247002396  8.49609375 6.1342925659472405  8.49609375 5.741007194244603  C 8.49609375 5.347721822541963  8.374023437500002 5.031175059952037  8.1298828125 4.79136690647482  C 7.885742187500001 4.551558752997602  7.563476562500001 4.431654676258992  7.1630859375 4.431654676258992  C 6.743164062500001 4.431654676258992  6.3720703125 4.553956834532375  6.0498046875 4.798561151079136  C 5.7275390625 5.0431654676259  5.56640625 5.357314148681053  5.56640625 5.741007194244603  C 5.56640625 6.115107913669064  5.7275390625 6.424460431654676  6.0498046875 6.66906474820144  C 6.3720703125 6.913669064748201  6.743164062500001 7.035971223021582  7.1630859375 7.035971223021582  C 7.563476562500001 7.035971223021582  7.885742187500001 6.9184652278177445  8.1298828125 6.683453237410073  Z " stroke-width="0" stroke-dasharray="0" stroke="rgba(255, 255, 255, 0)" fill="none" transform="matrix(1 0 0 1 129 939 )" class="stroke" mask="url(#Clip58)" />
    <path d="M 19.00634765625 13.76978417266187  C 19.25537109375 13.558752997601916  19.3798828125 13.314148681055155  19.3798828125 13.035971223021582  C 19.3798828125 12.767386091127095  19.25537109375 12.52757793764988  19.00634765625 12.316546762589926  C 18.75732421875 12.105515587529975  18.4375 12  18.046875 12  C 17.783203125 12  17.54150390625 12.10791366906475  17.32177734375 12.323741007194245  C 17.10205078125 12.53956834532374  16.9921875 12.776978417266188  16.9921875 13.035971223021582  C 16.9921875 13.304556354916068  17.10205078125 13.546762589928056  17.32177734375 13.762589928057555  C 17.54150390625 13.978417266187051  17.783203125 14.086330935251798  18.046875 14.086330935251798  C 18.4375 14.086330935251798  18.75732421875 13.980815347721823  19.00634765625 13.76978417266187  Z " stroke-width="0" stroke-dasharray="0" stroke="rgba(255, 255, 255, 0)" fill="none" transform="matrix(1 0 0 1 129 939 )" class="stroke" mask="url(#Clip58)" />
    <path d="M 15.56396484375 6.683453237410073  C 15.803222656250002 6.448441247002396  15.9228515625 6.1342925659472405  15.9228515625 5.741007194244603  C 15.9228515625 5.347721822541963  15.803222656250002 5.031175059952037  15.56396484375 4.79136690647482  C 15.324707031250002 4.551558752997602  15.004882812500002 4.431654676258992  14.6044921875 4.431654676258992  C 14.184570312500002 4.431654676258992  13.813476562500002 4.553956834532375  13.4912109375 4.798561151079136  C 13.168945312500002 5.0431654676259  13.007812500000002 5.357314148681053  13.0078125 5.741007194244603  C 13.007812500000002 6.115107913669064  13.168945312500002 6.424460431654676  13.4912109375 6.66906474820144  C 13.813476562500002 6.913669064748201  14.184570312500002 7.035971223021582  14.6044921875 7.035971223021582  C 15.004882812500002 7.035971223021582  15.324707031250002 6.9184652278177445  15.56396484375 6.683453237410073  Z " stroke-width="0" stroke-dasharray="0" stroke="rgba(255, 255, 255, 0)" fill="none" transform="matrix(1 0 0 1 129 939 )" class="stroke" mask="url(#Clip58)" />
    <path d="M 24.84375 13.76978417266187  C 25.097656250000004 13.558752997601916  25.224609375000004 13.314148681055155  25.224609375 13.035971223021582  C 25.224609375000004 12.767386091127095  25.097656250000004 12.52757793764988  24.84375 12.316546762589926  C 24.58984375 12.105515587529975  24.2724609375 12  23.8916015625 12  C 23.6279296875 12  23.38623046875 12.10791366906475  23.16650390625 12.323741007194245  C 22.94677734375 12.53956834532374  22.8369140625 12.776978417266188  22.8369140625 13.035971223021582  C 22.8369140625 13.304556354916068  22.94677734375 13.546762589928056  23.16650390625 13.762589928057555  C 23.38623046875 13.978417266187051  23.6279296875 14.086330935251798  23.8916015625 14.086330935251798  C 24.2724609375 14.086330935251798  24.58984375 13.980815347721823  24.84375 13.76978417266187  Z " stroke-width="0" stroke-dasharray="0" stroke="rgba(255, 255, 255, 0)" fill="none" transform="matrix(1 0 0 1 129 939 )" class="stroke" mask="url(#Clip58)" />
    <path d="M 19.32861328125 3.575539568345323  C 20.358886718750004 4.693045563549159  21.025390625000004 5.942446043165468  21.328125 7.323741007194244  C 21.025390625000004 7.285371702637889  20.68359375 7.266187050359712  20.302734375 7.266187050359712  C 18.652343750000004 7.266187050359712  17.1337890625 7.635491606714627  15.7470703125 8.374100719424462  C 14.360351562500002 9.112709832134291  13.269042968750002 10.112709832134293  12.47314453125 11.374100719424462  C 11.677246093750002 12.635491606714627  11.279296875 14.014388489208631  11.279296875 15.510791366906474  C 11.279296875 16.258992805755398  11.391601562500002 16.988009592326136  11.6162109375 17.697841726618705  C 11.274414062500002 17.726618705035975  10.9423828125 17.741007194244606  10.6201171875 17.741007194244606  C 10.366210937500002 17.741007194244606  10.1220703125 17.73381294964029  9.8876953125 17.719424460431654  C 9.6533203125 17.70503597122302  9.384765625000002 17.67386091127098  9.08203125 17.62589928057554  C 8.779296875 17.5779376498801  8.56201171875 17.544364508393286  8.43017578125 17.52517985611511  C 8.29833984375 17.505995203836925  8.0322265625 17.455635491606714  7.6318359375 17.37410071942446  C 7.231445312500001 17.292565947242203  6.987304687500001 17.242206235011988  6.8994140625 17.223021582733814  L 3.193359375 19.050359712230215  L 4.248046875 15.913669064748202  C 1.4160156249999998 13.966426858513188  0 11.61630695443645  0 8.863309352517987  C 0 7.24220623501199  0.47607421875 5.75059952038369  1.42822265625 4.388489208633093  C 2.3803710937500004 3.026378896882493  3.6694335937500004 1.9544364508393262  5.29541015625 1.1726618705035978  C 6.921386718750001 0.39088729016786417  8.696289062500002 0  10.6201171875 0  C 12.3388671875 0  13.962402343750002 0.31654676258992875  15.49072265625 0.9496402877697836  C 17.019042968750004 1.582733812949641  18.29833984375 2.4580335731414866  19.32861328125 3.575539568345323  Z " stroke-width="0" stroke-dasharray="0" stroke="rgba(255, 255, 255, 0)" fill="none" transform="matrix(1 0 0 1 129 939 )" class="stroke" mask="url(#Clip58)" />
    <path d="M 28.74755859375 11.60431654676259  C 29.58251953125 12.769784172661872  30 14.03357314148681  30 15.39568345323741  C 30 16.517985611510788  29.66552734375 17.589928057553955  28.99658203125 18.611510791366904  C 28.327636718750004 19.633093525179856  27.421875000000004 20.561151079136692  26.279296875 21.39568345323741  L 27.0849609375 24  L 24.169921875 22.431654676258994  C 22.705078125 22.786570743405278  21.640625000000004 22.964028776978417  20.9765625 22.964028776978417  C 19.326171875000004 22.964028776978417  17.8076171875 22.62589928057554  16.4208984375 21.949640287769782  C 15.034179687500002 21.27338129496403  13.94287109375 20.354916067146284  13.14697265625 19.194244604316548  C 12.351074218750002 18.03357314148681  11.953125000000002 16.767386091127097  11.953125 15.39568345323741  C 11.953125000000002 14.02398081534772  12.351074218750002 12.757793764988008  13.14697265625 11.597122302158272  C 13.94287109375 10.436450839328536  15.034179687500002 9.517985611510792  16.4208984375 8.841726618705037  C 17.8076171875 8.16546762589928  19.326171875000004 7.827338129496402  20.9765625 7.827338129496402  C 22.548828125000004 7.827338129496402  24.028320312500004 8.16546762589928  25.4150390625 8.841726618705037  C 26.8017578125 9.517985611510792  27.91259765625 10.438848920863308  28.74755859375 11.60431654676259  Z " stroke-width="0" stroke-dasharray="0" stroke="rgba(255, 255, 255, 0)" fill="none" transform="matrix(1 0 0 1 129 939 )" class="stroke" mask="url(#Clip58)" />
  </g>
</svg>