<?xml version="1.0" encoding="utf-8"?>
<svg version="1.1" xmlns:xlink="http://www.w3.org/1999/xlink" width="33px" height="27px" xmlns="http://www.w3.org/2000/svg">
  <defs>
    <pattern id="BGPattern" patternUnits="userSpaceOnUse" alignment="0 0" imageRepeat="None" />
    <mask fill="white" id="Clip19">
      <path d="M 13.427295918367347 24.690234375  C 13.41326530612245 24.767578125  13.427295918367347 24.8625  13.46938775510204 24.975  C 13.46938775510204 25.03125  13.47640306122449 25.171875  13.490433673469386 25.396875  C 13.504464285714286 25.621875  13.50797193877551 25.808203125  13.500956632653061 25.955859375  C 13.493941326530614 26.103515625  13.472895408163266 26.26875  13.43781887755102 26.4515625  C 13.402742346938776 26.634375000000002  13.332589285714286 26.771484375  13.22735969387755 26.862890625  C 13.122130102040817 26.954296875  12.978316326530614 27  12.795918367346939 27  L 6.061224489795919 27  C 4.391581632653062 27  2.963966836734694 26.405859375  1.7783801020408163 25.217578125  C 0.5927933673469388 24.029296875  0 22.5984375  0 20.925  L 0 6.074999999999999  C 0 4.401562499999995  0.5927933673469388 2.970703124999999  1.7783801020408163 1.7824218750000007  C 2.963966836734694 0.5941406249999962  4.391581632653062 0  6.061224489795919 0  L 12.795918367346939 0  C 12.978316326530614 0  13.136160714285715 0.0667968749999962  13.269451530612244 0.2003906250000006  C 13.402742346938776 0.333984374999999  13.46938775510204 0.492187499999999  13.46938775510204 0.6750000000000006  C 13.46938775510204 0.7312499999999974  13.47640306122449 0.8718749999999984  13.490433673469386 1.0968750000000007  C 13.504464285714286 1.3218749999999968  13.50797193877551 1.5082031250000012  13.500956632653061 1.6558593749999988  C 13.493941326530614 1.8035156249999993  13.472895408163266 1.9687499999999991  13.43781887755102 2.1515625000000007  C 13.402742346938776 2.334374999999996  13.332589285714286 2.4714843749999975  13.22735969387755 2.5628906250000014  C 13.122130102040817 2.654296874999999  12.978316326530614 2.6999999999999993  12.795918367346939 2.6999999999999993  L 6.061224489795919 2.6999999999999993  C 5.135204081632653 2.6999999999999993  4.3424744897959195 3.0304687499999954  3.6830357142857144 3.69140625  C 3.0235969387755106 4.352343749999998  2.693877551020408 5.146875000000001  3 6.074999999999999  L 3 20.925  C 2.693877551020408 21.853125  3.0235969387755106 22.647656249999997  3.6830357142857144 23.30859375  C 4.3424744897959195 23.96953125  5.135204081632653 24.3  6.061224489795919 24.3  L 12.122448979591837 24.3  L 12.353954081632653 24.3  L 12.627551020408163 24.3  C 12.627551020408163 24.3  12.708227040816327 24.307031249999998  12.869579081632653 24.32109375  C 13.030931122448981 24.33515625  13.111607142857142 24.35625  13.111607142857142 24.384375  C 13.111607142857142 24.412499999999998  13.167729591836736 24.451171875  13.279974489795919 24.500390625  C 13.392219387755103 24.549609375  13.441326530612246 24.612890625  13.427295918367347 24.690234375  Z M 32.60012755102041 12.55078125  C 32.86670918367347 12.81796875  33 13.134375  33 13.5  C 33 13.865624999999998  32.86670918367347 14.182031249999998  32.60012755102041 14.44921875  L 21.151147959183675 25.92421875  C 20.88456632653061 26.19140625  20.56887755102041 26.325  20.20408163265306 26.325  C 19.839285714285715 26.325  19.523596938775512 26.19140625  19.257015306122447 25.92421875  C 18.99043367346939 25.65703125  18.857142857142858 25.340625  18.857142857142858 24.975  L 18.857142857142858 18.9  L 9.428571428571429 18.9  C 9.063775510204081 18.9  8.748086734693878 18.76640625  8.481505102040817 18.49921875  C 8.214923469387754 18.23203125  8.081632653061224 17.915625  8.081632653061224 17.55  L 8.081632653061224 9.45  C 8.081632653061224 9.084374999999996  8.214923469387754 8.767968749999996  8.481505102040817 8.50078125  C 8.748086734693878 8.233593749999999  9.063775510204081 8.100000000000001  9.428571428571429 8.100000000000001  L 18.857142857142858 8.100000000000001  L 18.857142857142858 2.0249999999999986  C 18.857142857142858 1.6593749999999956  18.99043367346939 1.3429687499999956  19.257015306122447 1.0757812499999988  C 19.523596938775512 0.808593749999999  19.839285714285715 0.6750000000000006  20.20408163265306 0.6750000000000006  C 20.56887755102041 0.6750000000000006  20.88456632653061 0.808593749999999  21.151147959183675 1.0757812499999988  L 32.60012755102041 12.55078125  Z " fill-rule="evenodd" />
    </mask>
  </defs>
  <g transform="matrix(1 0 0 1 -21 -224 )">
    <path d="M 13.427295918367347 24.690234375  C 13.41326530612245 24.767578125  13.427295918367347 24.8625  13.46938775510204 24.975  C 13.46938775510204 25.03125  13.47640306122449 25.171875  13.490433673469386 25.396875  C 13.504464285714286 25.621875  13.50797193877551 25.808203125  13.500956632653061 25.955859375  C 13.493941326530614 26.103515625  13.472895408163266 26.26875  13.43781887755102 26.4515625  C 13.402742346938776 26.634375000000002  13.332589285714286 26.771484375  13.22735969387755 26.862890625  C 13.122130102040817 26.954296875  12.978316326530614 27  12.795918367346939 27  L 6.061224489795919 27  C 4.391581632653062 27  2.963966836734694 26.405859375  1.7783801020408163 25.217578125  C 0.5927933673469388 24.029296875  0 22.5984375  0 20.925  L 0 6.074999999999999  C 0 4.401562499999995  0.5927933673469388 2.970703124999999  1.7783801020408163 1.7824218750000007  C 2.963966836734694 0.5941406249999962  4.391581632653062 0  6.061224489795919 0  L 12.795918367346939 0  C 12.978316326530614 0  13.136160714285715 0.0667968749999962  13.269451530612244 0.2003906250000006  C 13.402742346938776 0.333984374999999  13.46938775510204 0.492187499999999  13.46938775510204 0.6750000000000006  C 13.46938775510204 0.7312499999999974  13.47640306122449 0.8718749999999984  13.490433673469386 1.0968750000000007  C 13.504464285714286 1.3218749999999968  13.50797193877551 1.5082031250000012  13.500956632653061 1.6558593749999988  C 13.493941326530614 1.8035156249999993  13.472895408163266 1.9687499999999991  13.43781887755102 2.1515625000000007  C 13.402742346938776 2.334374999999996  13.332589285714286 2.4714843749999975  13.22735969387755 2.5628906250000014  C 13.122130102040817 2.654296874999999  12.978316326530614 2.6999999999999993  12.795918367346939 2.6999999999999993  L 6.061224489795919 2.6999999999999993  C 5.135204081632653 2.6999999999999993  4.3424744897959195 3.0304687499999954  3.6830357142857144 3.69140625  C 3.0235969387755106 4.352343749999998  2.693877551020408 5.146875000000001  3 6.074999999999999  L 3 20.925  C 2.693877551020408 21.853125  3.0235969387755106 22.647656249999997  3.6830357142857144 23.30859375  C 4.3424744897959195 23.96953125  5.135204081632653 24.3  6.061224489795919 24.3  L 12.122448979591837 24.3  L 12.353954081632653 24.3  L 12.627551020408163 24.3  C 12.627551020408163 24.3  12.708227040816327 24.307031249999998  12.869579081632653 24.32109375  C 13.030931122448981 24.33515625  13.111607142857142 24.35625  13.111607142857142 24.384375  C 13.111607142857142 24.412499999999998  13.167729591836736 24.451171875  13.279974489795919 24.500390625  C 13.392219387755103 24.549609375  13.441326530612246 24.612890625  13.427295918367347 24.690234375  Z M 32.60012755102041 12.55078125  C 32.86670918367347 12.81796875  33 13.134375  33 13.5  C 33 13.865624999999998  32.86670918367347 14.182031249999998  32.60012755102041 14.44921875  L 21.151147959183675 25.92421875  C 20.88456632653061 26.19140625  20.56887755102041 26.325  20.20408163265306 26.325  C 19.839285714285715 26.325  19.523596938775512 26.19140625  19.257015306122447 25.92421875  C 18.99043367346939 25.65703125  18.857142857142858 25.340625  18.857142857142858 24.975  L 18.857142857142858 18.9  L 9.428571428571429 18.9  C 9.063775510204081 18.9  8.748086734693878 18.76640625  8.481505102040817 18.49921875  C 8.214923469387754 18.23203125  8.081632653061224 17.915625  8.081632653061224 17.55  L 8.081632653061224 9.45  C 8.081632653061224 9.084374999999996  8.214923469387754 8.767968749999996  8.481505102040817 8.50078125  C 8.748086734693878 8.233593749999999  9.063775510204081 8.100000000000001  9.428571428571429 8.100000000000001  L 18.857142857142858 8.100000000000001  L 18.857142857142858 2.0249999999999986  C 18.857142857142858 1.6593749999999956  18.99043367346939 1.3429687499999956  19.257015306122447 1.0757812499999988  C 19.523596938775512 0.808593749999999  19.839285714285715 0.6750000000000006  20.20408163265306 0.6750000000000006  C 20.56887755102041 0.6750000000000006  20.88456632653061 0.808593749999999  21.151147959183675 1.0757812499999988  L 32.60012755102041 12.55078125  Z " fill-rule="nonzero" fill="rgba(0, 0, 0, 1)" stroke="none" transform="matrix(1 0 0 1 21 224 )" class="fill" />
    <path d="M 13.427295918367347 24.690234375  C 13.41326530612245 24.767578125  13.427295918367347 24.8625  13.46938775510204 24.975  C 13.46938775510204 25.03125  13.47640306122449 25.171875  13.490433673469386 25.396875  C 13.504464285714286 25.621875  13.50797193877551 25.808203125  13.500956632653061 25.955859375  C 13.493941326530614 26.103515625  13.472895408163266 26.26875  13.43781887755102 26.4515625  C 13.402742346938776 26.634375000000002  13.332589285714286 26.771484375  13.22735969387755 26.862890625  C 13.122130102040817 26.954296875  12.978316326530614 27  12.795918367346939 27  L 6.061224489795919 27  C 4.391581632653062 27  2.963966836734694 26.405859375  1.7783801020408163 25.217578125  C 0.5927933673469388 24.029296875  0 22.5984375  0 20.925  L 0 6.074999999999999  C 0 4.401562499999995  0.5927933673469388 2.970703124999999  1.7783801020408163 1.7824218750000007  C 2.963966836734694 0.5941406249999962  4.391581632653062 0  6.061224489795919 0  L 12.795918367346939 0  C 12.978316326530614 0  13.136160714285715 0.0667968749999962  13.269451530612244 0.2003906250000006  C 13.402742346938776 0.333984374999999  13.46938775510204 0.492187499999999  13.46938775510204 0.6750000000000006  C 13.46938775510204 0.7312499999999974  13.47640306122449 0.8718749999999984  13.490433673469386 1.0968750000000007  C 13.504464285714286 1.3218749999999968  13.50797193877551 1.5082031250000012  13.500956632653061 1.6558593749999988  C 13.493941326530614 1.8035156249999993  13.472895408163266 1.9687499999999991  13.43781887755102 2.1515625000000007  C 13.402742346938776 2.334374999999996  13.332589285714286 2.4714843749999975  13.22735969387755 2.5628906250000014  C 13.122130102040817 2.654296874999999  12.978316326530614 2.6999999999999993  12.795918367346939 2.6999999999999993  L 6.061224489795919 2.6999999999999993  C 5.135204081632653 2.6999999999999993  4.3424744897959195 3.0304687499999954  3.6830357142857144 3.69140625  C 3.0235969387755106 4.352343749999998  2.693877551020408 5.146875000000001  3 6.074999999999999  L 3 20.925  C 2.693877551020408 21.853125  3.0235969387755106 22.647656249999997  3.6830357142857144 23.30859375  C 4.3424744897959195 23.96953125  5.135204081632653 24.3  6.061224489795919 24.3  L 12.122448979591837 24.3  L 12.353954081632653 24.3  L 12.627551020408163 24.3  C 12.627551020408163 24.3  12.708227040816327 24.307031249999998  12.869579081632653 24.32109375  C 13.030931122448981 24.33515625  13.111607142857142 24.35625  13.111607142857142 24.384375  C 13.111607142857142 24.412499999999998  13.167729591836736 24.451171875  13.279974489795919 24.500390625  C 13.392219387755103 24.549609375  13.441326530612246 24.612890625  13.427295918367347 24.690234375  Z " stroke-width="0" stroke-dasharray="0" stroke="rgba(255, 255, 255, 0)" fill="none" transform="matrix(1 0 0 1 21 224 )" class="stroke" mask="url(#Clip19)" />
    <path d="M 32.60012755102041 12.55078125  C 32.86670918367347 12.81796875  33 13.134375  33 13.5  C 33 13.865624999999998  32.86670918367347 14.182031249999998  32.60012755102041 14.44921875  L 21.151147959183675 25.92421875  C 20.88456632653061 26.19140625  20.56887755102041 26.325  20.20408163265306 26.325  C 19.839285714285715 26.325  19.523596938775512 26.19140625  19.257015306122447 25.92421875  C 18.99043367346939 25.65703125  18.857142857142858 25.340625  18.857142857142858 24.975  L 18.857142857142858 18.9  L 9.428571428571429 18.9  C 9.063775510204081 18.9  8.748086734693878 18.76640625  8.481505102040817 18.49921875  C 8.214923469387754 18.23203125  8.081632653061224 17.915625  8.081632653061224 17.55  L 8.081632653061224 9.45  C 8.081632653061224 9.084374999999996  8.214923469387754 8.767968749999996  8.481505102040817 8.50078125  C 8.748086734693878 8.233593749999999  9.063775510204081 8.100000000000001  9.428571428571429 8.100000000000001  L 18.857142857142858 8.100000000000001  L 18.857142857142858 2.0249999999999986  C 18.857142857142858 1.6593749999999956  18.99043367346939 1.3429687499999956  19.257015306122447 1.0757812499999988  C 19.523596938775512 0.808593749999999  19.839285714285715 0.6750000000000006  20.20408163265306 0.6750000000000006  C 20.56887755102041 0.6750000000000006  20.88456632653061 0.808593749999999  21.151147959183675 1.0757812499999988  L 32.60012755102041 12.55078125  Z " stroke-width="0" stroke-dasharray="0" stroke="rgba(255, 255, 255, 0)" fill="none" transform="matrix(1 0 0 1 21 224 )" class="stroke" mask="url(#Clip19)" />
  </g>
</svg>