<?xml version="1.0" encoding="utf-8"?>
<svg version="1.1" xmlns:xlink="http://www.w3.org/1999/xlink" width="30px" height="20px" xmlns="http://www.w3.org/2000/svg">
  <defs>
    <pattern id="BGPattern" patternUnits="userSpaceOnUse" alignment="0 0" imageRepeat="None" />
    <mask fill="white" id="Clip12">
      <path d="M 15.625000000000002 11.575520833333336  L 23.098958333333332 9.21875  L 23.333333333333332 13.333333333333336  C 23.368055555555557 13.932291666666664  23.01215277777778 14.487847222222218  22.265625 15  C 21.519097222222225 15.512152777777777  20.499131944444446 15.91796875  19.205729166666668 16.217447916666668  C 17.91232638888889 16.516927083333332  16.510416666666668 16.666666666666668  15 16.666666666666668  C 13.489583333333334 16.666666666666668  12.087673611111112 16.516927083333332  10.794270833333334 16.217447916666668  C 9.500868055555555 15.91796875  8.480902777777779 15.512152777777777  7.734375 15  C 6.987847222222223 14.487847222222218  6.631944444444445 13.932291666666664  6.666666666666666 13.333333333333336  L 6.901041666666666 9.21875  L 14.375 11.575520833333336  C 14.565972222222223 11.636284722222223  14.774305555555555 11.666666666666664  15 11.666666666666664  C 15.225694444444448 11.666666666666664  15.43402777777778 11.636284722222223  15.625000000000002 11.575520833333336  Z M 29.713541666666664 4.596354166666668  C 29.904513888888893 4.665798611111109  30 4.800347222222221  30 5  C 30 5.199652777777777  29.904513888888893 5.334201388888886  29.713541666666664 5.403645833333332  L 15.130208333333334 9.986979166666668  C 15.095486111111114 9.995659722222221  15.052083333333336 10  15 10  C 14.947916666666666 10  14.90451388888889 9.995659722222221  14.869791666666666 9.986979166666668  L 6.380208333333333 7.3046875  C 6.0069444444444455 7.599826388888886  5.698784722222223 8.083767361111109  5.455729166666667 8.756510416666668  C 5.212673611111112 9.429253472222221  5.065104166666667 10.203993055555554  5.013020833333333 11.080729166666664  C 5.559895833333333 11.393229166666664  5.833333333333333 11.866319444444443  5.833333333333333 12.5  C 5.833333333333333 13.098958333333336  5.581597222222222 13.563368055555554  5.078125 13.893229166666664  L 5.833333333333333 19.53125  C 5.850694444444445 19.65277777777778  5.815972222222223 19.76128472222222  5.729166666666666 19.856770833333332  C 5.651041666666667 19.952256944444443  5.546875 20  5.416666666666667 20  L 2.9166666666666665 20  C 2.7864583333333335 20  2.6822916666666665 19.952256944444443  2.6041666666666665 19.856770833333332  C 2.517361111111111 19.76128472222222  2.4826388888888893 19.65277777777778  2.5 19.53125  L 3.2552083333333335 13.893229166666664  C 2.751736111111111 13.563368055555554  2.5 13.098958333333336  2.5 12.5  C 2.5 11.866319444444443  2.7821180555555554 11.38454861111111  3.346354166666667 11.0546875  C 3.441840277777778 9.2578125  3.8671875 7.825520833333332  4.622395833333333 6.7578125  L 0.28645833333333337 5.403645833333332  C 0.0954861111111111 5.334201388888886  0 5.199652777777777  0 5  C 0 4.800347222222221  0.0954861111111111 4.665798611111109  0.28645833333333337 4.596354166666668  L 14.869791666666666 0.013020833333332593  C 14.90451388888889 0.004340277777776791  14.947916666666666 0  15 0  C 15.052083333333336 0  15.095486111111114 0.004340277777776791  15.130208333333334 0.013020833333332593  L 29.713541666666664 4.596354166666668  Z " fill-rule="evenodd" />
    </mask>
  </defs>
  <g transform="matrix(1 0 0 1 -251 -61 )">
    <path d="M 15.625000000000002 11.575520833333336  L 23.098958333333332 9.21875  L 23.333333333333332 13.333333333333336  C 23.368055555555557 13.932291666666664  23.01215277777778 14.487847222222218  22.265625 15  C 21.519097222222225 15.512152777777777  20.499131944444446 15.91796875  19.205729166666668 16.217447916666668  C 17.91232638888889 16.516927083333332  16.510416666666668 16.666666666666668  15 16.666666666666668  C 13.489583333333334 16.666666666666668  12.087673611111112 16.516927083333332  10.794270833333334 16.217447916666668  C 9.500868055555555 15.91796875  8.480902777777779 15.512152777777777  7.734375 15  C 6.987847222222223 14.487847222222218  6.631944444444445 13.932291666666664  6.666666666666666 13.333333333333336  L 6.901041666666666 9.21875  L 14.375 11.575520833333336  C 14.565972222222223 11.636284722222223  14.774305555555555 11.666666666666664  15 11.666666666666664  C 15.225694444444448 11.666666666666664  15.43402777777778 11.636284722222223  15.625000000000002 11.575520833333336  Z M 29.713541666666664 4.596354166666668  C 29.904513888888893 4.665798611111109  30 4.800347222222221  30 5  C 30 5.199652777777777  29.904513888888893 5.334201388888886  29.713541666666664 5.403645833333332  L 15.130208333333334 9.986979166666668  C 15.095486111111114 9.995659722222221  15.052083333333336 10  15 10  C 14.947916666666666 10  14.90451388888889 9.995659722222221  14.869791666666666 9.986979166666668  L 6.380208333333333 7.3046875  C 6.0069444444444455 7.599826388888886  5.698784722222223 8.083767361111109  5.455729166666667 8.756510416666668  C 5.212673611111112 9.429253472222221  5.065104166666667 10.203993055555554  5.013020833333333 11.080729166666664  C 5.559895833333333 11.393229166666664  5.833333333333333 11.866319444444443  5.833333333333333 12.5  C 5.833333333333333 13.098958333333336  5.581597222222222 13.563368055555554  5.078125 13.893229166666664  L 5.833333333333333 19.53125  C 5.850694444444445 19.65277777777778  5.815972222222223 19.76128472222222  5.729166666666666 19.856770833333332  C 5.651041666666667 19.952256944444443  5.546875 20  5.416666666666667 20  L 2.9166666666666665 20  C 2.7864583333333335 20  2.6822916666666665 19.952256944444443  2.6041666666666665 19.856770833333332  C 2.517361111111111 19.76128472222222  2.4826388888888893 19.65277777777778  2.5 19.53125  L 3.2552083333333335 13.893229166666664  C 2.751736111111111 13.563368055555554  2.5 13.098958333333336  2.5 12.5  C 2.5 11.866319444444443  2.7821180555555554 11.38454861111111  3.346354166666667 11.0546875  C 3.441840277777778 9.2578125  3.8671875 7.825520833333332  4.622395833333333 6.7578125  L 0.28645833333333337 5.403645833333332  C 0.0954861111111111 5.334201388888886  0 5.199652777777777  0 5  C 0 4.800347222222221  0.0954861111111111 4.665798611111109  0.28645833333333337 4.596354166666668  L 14.869791666666666 0.013020833333332593  C 14.90451388888889 0.004340277777776791  14.947916666666666 0  15 0  C 15.052083333333336 0  15.095486111111114 0.004340277777776791  15.130208333333334 0.013020833333332593  L 29.713541666666664 4.596354166666668  Z " fill-rule="nonzero" fill="rgba(184, 184, 184, 1)" stroke="none" transform="matrix(1 0 0 1 251 61 )" class="fill" />
    <path d="M 15.625000000000002 11.575520833333336  L 23.098958333333332 9.21875  L 23.333333333333332 13.333333333333336  C 23.368055555555557 13.932291666666664  23.01215277777778 14.487847222222218  22.265625 15  C 21.519097222222225 15.512152777777777  20.499131944444446 15.91796875  19.205729166666668 16.217447916666668  C 17.91232638888889 16.516927083333332  16.510416666666668 16.666666666666668  15 16.666666666666668  C 13.489583333333334 16.666666666666668  12.087673611111112 16.516927083333332  10.794270833333334 16.217447916666668  C 9.500868055555555 15.91796875  8.480902777777779 15.512152777777777  7.734375 15  C 6.987847222222223 14.487847222222218  6.631944444444445 13.932291666666664  6.666666666666666 13.333333333333336  L 6.901041666666666 9.21875  L 14.375 11.575520833333336  C 14.565972222222223 11.636284722222223  14.774305555555555 11.666666666666664  15 11.666666666666664  C 15.225694444444448 11.666666666666664  15.43402777777778 11.636284722222223  15.625000000000002 11.575520833333336  Z " stroke-width="0" stroke-dasharray="0" stroke="rgba(255, 255, 255, 0)" fill="none" transform="matrix(1 0 0 1 251 61 )" class="stroke" mask="url(#Clip12)" />
    <path d="M 29.713541666666664 4.596354166666668  C 29.904513888888893 4.665798611111109  30 4.800347222222221  30 5  C 30 5.199652777777777  29.904513888888893 5.334201388888886  29.713541666666664 5.403645833333332  L 15.130208333333334 9.986979166666668  C 15.095486111111114 9.995659722222221  15.052083333333336 10  15 10  C 14.947916666666666 10  14.90451388888889 9.995659722222221  14.869791666666666 9.986979166666668  L 6.380208333333333 7.3046875  C 6.0069444444444455 7.599826388888886  5.698784722222223 8.083767361111109  5.455729166666667 8.756510416666668  C 5.212673611111112 9.429253472222221  5.065104166666667 10.203993055555554  5.013020833333333 11.080729166666664  C 5.559895833333333 11.393229166666664  5.833333333333333 11.866319444444443  5.833333333333333 12.5  C 5.833333333333333 13.098958333333336  5.581597222222222 13.563368055555554  5.078125 13.893229166666664  L 5.833333333333333 19.53125  C 5.850694444444445 19.65277777777778  5.815972222222223 19.76128472222222  5.729166666666666 19.856770833333332  C 5.651041666666667 19.952256944444443  5.546875 20  5.416666666666667 20  L 2.9166666666666665 20  C 2.7864583333333335 20  2.6822916666666665 19.952256944444443  2.6041666666666665 19.856770833333332  C 2.517361111111111 19.76128472222222  2.4826388888888893 19.65277777777778  2.5 19.53125  L 3.2552083333333335 13.893229166666664  C 2.751736111111111 13.563368055555554  2.5 13.098958333333336  2.5 12.5  C 2.5 11.866319444444443  2.7821180555555554 11.38454861111111  3.346354166666667 11.0546875  C 3.441840277777778 9.2578125  3.8671875 7.825520833333332  4.622395833333333 6.7578125  L 0.28645833333333337 5.403645833333332  C 0.0954861111111111 5.334201388888886  0 5.199652777777777  0 5  C 0 4.800347222222221  0.0954861111111111 4.665798611111109  0.28645833333333337 4.596354166666668  L 14.869791666666666 0.013020833333332593  C 14.90451388888889 0.004340277777776791  14.947916666666666 0  15 0  C 15.052083333333336 0  15.095486111111114 0.004340277777776791  15.130208333333334 0.013020833333332593  L 29.713541666666664 4.596354166666668  Z " stroke-width="0" stroke-dasharray="0" stroke="rgba(255, 255, 255, 0)" fill="none" transform="matrix(1 0 0 1 251 61 )" class="stroke" mask="url(#Clip12)" />
  </g>
</svg>