<?xml version="1.0" encoding="utf-8"?>
<svg version="1.1" xmlns:xlink="http://www.w3.org/1999/xlink" width="25px" height="22px" xmlns="http://www.w3.org/2000/svg">
  <defs>
    <pattern id="BGPattern" patternUnits="userSpaceOnUse" alignment="0 0" imageRepeat="None" />
    <mask fill="white" id="Clip9">
      <path d="M 9.850260416666666 10.001802884615385  C 10.58376736111111 9.257011217948717  11.46701388888889 8.884615384615383  12.5 8.884615384615385  C 13.532986111111114 8.884615384615383  14.41623263888889 9.257011217948717  15.149739583333332 10.001802884615385  C 15.88324652777778 10.746594551282051  16.25 11.643429487179485  16.25 12.692307692307692  C 16.25 13.741185897435896  15.88324652777778 14.638020833333332  15.149739583333332 15.3828125  C 14.41623263888889 16.127604166666664  13.532986111111114 16.5  12.5 16.5  C 11.46701388888889 16.5  10.58376736111111 16.127604166666664  9.850260416666666 15.3828125  C 9.116753472222223 14.638020833333332  8.75 13.741185897435896  8.75 12.692307692307692  C 8.75 11.643429487179485  9.116753472222223 10.746594551282051  9.850260416666666 10.001802884615385  Z M 18.75 3.384615384615385  L 21.666666666666668 3.384615384615385  C 22.586805555555557 3.384615384615385  23.372395833333336 3.7151442307692304  24.0234375 4.376201923076924  C 24.674479166666668 5.037259615384615  25.000000000000007 5.834935897435896  25 6.76923076923077  L 25 18.615384615384617  C 25.000000000000007 19.54967948717949  24.674479166666668 20.34735576923077  24.0234375 21.00841346153846  C 23.372395833333336 21.669471153846153  22.586805555555557 22  21.666666666666668 22  L 3.3333333333333335 22  C 2.4131944444444446 22  1.6276041666666667 21.669471153846153  0.9765625 21.00841346153846  C 0.32552083333333337 20.34735576923077  0 19.54967948717949  0 18.615384615384617  L 0 6.76923076923077  C 0 5.834935897435896  0.32552083333333337 5.037259615384615  0.9765625 4.376201923076924  C 1.6276041666666667 3.7151442307692304  2.4131944444444446 3.384615384615385  3.3333333333333335 3.384615384615385  L 6.25 3.384615384615385  L 6.9140625 1.5865384615384608  C 7.078993055555556 1.1546474358974355  7.380642361111112 0.7822516025641013  7.819010416666666 0.4693509615384608  C 8.257378472222223 0.1564503205128227  8.706597222222223 0  9.166666666666666 0  L 15.833333333333332 0  C 16.29340277777778 0  16.74262152777778 0.1564503205128227  17.180989583333332 0.4693509615384608  C 17.619357638888893 0.7822516025641013  17.921006944444446 1.1546474358974355  18.0859375 1.5865384615384608  L 18.75 3.384615384615385  Z M 8.37890625 16.876802884615383  C 9.520399305555555 18.035857371794872  10.894097222222223 18.615384615384617  12.5 18.615384615384617  C 14.105902777777779 18.615384615384617  15.479600694444445 18.035857371794872  16.62109375 16.876802884615383  C 17.762586805555554 15.717748397435896  18.333333333333332 14.322916666666666  18.333333333333332 12.692307692307692  C 18.333333333333332 11.061698717948719  17.762586805555554 9.666866987179485  16.62109375 8.5078125  C 15.479600694444445 7.348758012820511  14.105902777777779 6.76923076923077  12.5 6.76923076923077  C 10.894097222222223 6.76923076923077  9.520399305555555 7.348758012820511  8.37890625 8.5078125  C 7.237413194444445 9.666866987179485  6.666666666666667 11.061698717948719  6.666666666666667 12.692307692307692  C 6.666666666666667 14.322916666666666  7.237413194444445 15.717748397435896  8.37890625 16.876802884615383  Z " fill-rule="evenodd" />
    </mask>
  </defs>
  <g transform="matrix(1 0 0 1 -222 -646 )">
    <path d="M 9.850260416666666 10.001802884615385  C 10.58376736111111 9.257011217948717  11.46701388888889 8.884615384615383  12.5 8.884615384615385  C 13.532986111111114 8.884615384615383  14.41623263888889 9.257011217948717  15.149739583333332 10.001802884615385  C 15.88324652777778 10.746594551282051  16.25 11.643429487179485  16.25 12.692307692307692  C 16.25 13.741185897435896  15.88324652777778 14.638020833333332  15.149739583333332 15.3828125  C 14.41623263888889 16.127604166666664  13.532986111111114 16.5  12.5 16.5  C 11.46701388888889 16.5  10.58376736111111 16.127604166666664  9.850260416666666 15.3828125  C 9.116753472222223 14.638020833333332  8.75 13.741185897435896  8.75 12.692307692307692  C 8.75 11.643429487179485  9.116753472222223 10.746594551282051  9.850260416666666 10.001802884615385  Z M 18.75 3.384615384615385  L 21.666666666666668 3.384615384615385  C 22.586805555555557 3.384615384615385  23.372395833333336 3.7151442307692304  24.0234375 4.376201923076924  C 24.674479166666668 5.037259615384615  25.000000000000007 5.834935897435896  25 6.76923076923077  L 25 18.615384615384617  C 25.000000000000007 19.54967948717949  24.674479166666668 20.34735576923077  24.0234375 21.00841346153846  C 23.372395833333336 21.669471153846153  22.586805555555557 22  21.666666666666668 22  L 3.3333333333333335 22  C 2.4131944444444446 22  1.6276041666666667 21.669471153846153  0.9765625 21.00841346153846  C 0.32552083333333337 20.34735576923077  0 19.54967948717949  0 18.615384615384617  L 0 6.76923076923077  C 0 5.834935897435896  0.32552083333333337 5.037259615384615  0.9765625 4.376201923076924  C 1.6276041666666667 3.7151442307692304  2.4131944444444446 3.384615384615385  3.3333333333333335 3.384615384615385  L 6.25 3.384615384615385  L 6.9140625 1.5865384615384608  C 7.078993055555556 1.1546474358974355  7.380642361111112 0.7822516025641013  7.819010416666666 0.4693509615384608  C 8.257378472222223 0.1564503205128227  8.706597222222223 0  9.166666666666666 0  L 15.833333333333332 0  C 16.29340277777778 0  16.74262152777778 0.1564503205128227  17.180989583333332 0.4693509615384608  C 17.619357638888893 0.7822516025641013  17.921006944444446 1.1546474358974355  18.0859375 1.5865384615384608  L 18.75 3.384615384615385  Z M 8.37890625 16.876802884615383  C 9.520399305555555 18.035857371794872  10.894097222222223 18.615384615384617  12.5 18.615384615384617  C 14.105902777777779 18.615384615384617  15.479600694444445 18.035857371794872  16.62109375 16.876802884615383  C 17.762586805555554 15.717748397435896  18.333333333333332 14.322916666666666  18.333333333333332 12.692307692307692  C 18.333333333333332 11.061698717948719  17.762586805555554 9.666866987179485  16.62109375 8.5078125  C 15.479600694444445 7.348758012820511  14.105902777777779 6.76923076923077  12.5 6.76923076923077  C 10.894097222222223 6.76923076923077  9.520399305555555 7.348758012820511  8.37890625 8.5078125  C 7.237413194444445 9.666866987179485  6.666666666666667 11.061698717948719  6.666666666666667 12.692307692307692  C 6.666666666666667 14.322916666666666  7.237413194444445 15.717748397435896  8.37890625 16.876802884615383  Z " fill-rule="nonzero" fill="rgba(255, 255, 255, 1)" stroke="none" transform="matrix(1 0 0 1 222 646 )" class="fill" />
    <path d="M 9.850260416666666 10.001802884615385  C 10.58376736111111 9.257011217948717  11.46701388888889 8.884615384615383  12.5 8.884615384615385  C 13.532986111111114 8.884615384615383  14.41623263888889 9.257011217948717  15.149739583333332 10.001802884615385  C 15.88324652777778 10.746594551282051  16.25 11.643429487179485  16.25 12.692307692307692  C 16.25 13.741185897435896  15.88324652777778 14.638020833333332  15.149739583333332 15.3828125  C 14.41623263888889 16.127604166666664  13.532986111111114 16.5  12.5 16.5  C 11.46701388888889 16.5  10.58376736111111 16.127604166666664  9.850260416666666 15.3828125  C 9.116753472222223 14.638020833333332  8.75 13.741185897435896  8.75 12.692307692307692  C 8.75 11.643429487179485  9.116753472222223 10.746594551282051  9.850260416666666 10.001802884615385  Z " stroke-width="0" stroke-dasharray="0" stroke="rgba(255, 255, 255, 0)" fill="none" transform="matrix(1 0 0 1 222 646 )" class="stroke" mask="url(#Clip9)" />
    <path d="M 18.75 3.384615384615385  L 21.666666666666668 3.384615384615385  C 22.586805555555557 3.384615384615385  23.372395833333336 3.7151442307692304  24.0234375 4.376201923076924  C 24.674479166666668 5.037259615384615  25.000000000000007 5.834935897435896  25 6.76923076923077  L 25 18.615384615384617  C 25.000000000000007 19.54967948717949  24.674479166666668 20.34735576923077  24.0234375 21.00841346153846  C 23.372395833333336 21.669471153846153  22.586805555555557 22  21.666666666666668 22  L 3.3333333333333335 22  C 2.4131944444444446 22  1.6276041666666667 21.669471153846153  0.9765625 21.00841346153846  C 0.32552083333333337 20.34735576923077  0 19.54967948717949  0 18.615384615384617  L 0 6.76923076923077  C 0 5.834935897435896  0.32552083333333337 5.037259615384615  0.9765625 4.376201923076924  C 1.6276041666666667 3.7151442307692304  2.4131944444444446 3.384615384615385  3.3333333333333335 3.384615384615385  L 6.25 3.384615384615385  L 6.9140625 1.5865384615384608  C 7.078993055555556 1.1546474358974355  7.380642361111112 0.7822516025641013  7.819010416666666 0.4693509615384608  C 8.257378472222223 0.1564503205128227  8.706597222222223 0  9.166666666666666 0  L 15.833333333333332 0  C 16.29340277777778 0  16.74262152777778 0.1564503205128227  17.180989583333332 0.4693509615384608  C 17.619357638888893 0.7822516025641013  17.921006944444446 1.1546474358974355  18.0859375 1.5865384615384608  L 18.75 3.384615384615385  Z " stroke-width="0" stroke-dasharray="0" stroke="rgba(255, 255, 255, 0)" fill="none" transform="matrix(1 0 0 1 222 646 )" class="stroke" mask="url(#Clip9)" />
    <path d="M 8.37890625 16.876802884615383  C 9.520399305555555 18.035857371794872  10.894097222222223 18.615384615384617  12.5 18.615384615384617  C 14.105902777777779 18.615384615384617  15.479600694444445 18.035857371794872  16.62109375 16.876802884615383  C 17.762586805555554 15.717748397435896  18.333333333333332 14.322916666666666  18.333333333333332 12.692307692307692  C 18.333333333333332 11.061698717948719  17.762586805555554 9.666866987179485  16.62109375 8.5078125  C 15.479600694444445 7.348758012820511  14.105902777777779 6.76923076923077  12.5 6.76923076923077  C 10.894097222222223 6.76923076923077  9.520399305555555 7.348758012820511  8.37890625 8.5078125  C 7.237413194444445 9.666866987179485  6.666666666666667 11.061698717948719  6.666666666666667 12.692307692307692  C 6.666666666666667 14.322916666666666  7.237413194444445 15.717748397435896  8.37890625 16.876802884615383  Z " stroke-width="0" stroke-dasharray="0" stroke="rgba(255, 255, 255, 0)" fill="none" transform="matrix(1 0 0 1 222 646 )" class="stroke" mask="url(#Clip9)" />
  </g>
</svg>