<?xml version="1.0" encoding="utf-8"?>
<svg version="1.1" xmlns:xlink="http://www.w3.org/1999/xlink" width="25px" height="24px" xmlns="http://www.w3.org/2000/svg">
  <defs>
    <pattern id="BGPattern" patternUnits="userSpaceOnUse" alignment="0 0" imageRepeat="None" />
    <mask fill="white" id="Clip37">
      <path d="M 20.838341346153847 15  C 21.048677884615387 15.09375  21.153846153846153 15.244791666666664  21.153846153846153 15.453124999999998  L 21.153846153846153 19.5  C 21.153846153846153 20.739583333333332  20.73066907051282 21.799479166666668  19.884314903846153 22.6796875  C 19.03796073717949 23.559895833333332  18.018830128205128 24  16.826923076923077 24  L 4.326923076923077 24  C 3.1350160256410255 24  2.115885416666667 23.559895833333332  1.26953125 22.6796875  C 0.4231770833333333 21.799479166666668  0 20.739583333333332  0 19.5  L 0 6.500000000000001  C 0 5.260416666666664  0.4231770833333333 4.200520833333332  1.26953125 3.320312499999999  C 2.115885416666667 2.4401041666666634  3.1350160256410255 2.000000000000001  4.326923076923077 2.000000000000001  L 8.158052884615383 2.000000000000001  C 8.288261217948719 2.000000000000001  8.400941506410257 2.0494791666666643  8.49609375 2.148437499999999  C 8.591245993589745 2.2473958333333313  8.638822115384617 2.3645833333333313  8.638822115384617 2.499999999999999  C 8.638822115384617 2.781249999999999  8.508613782051283 2.947916666666665  8.248197115384617 3  C 7.476963141025641 3.270833333333333  6.810897435897437 3.5833333333333313  6.25 3.9375  C 6.149839743589744 3.979166666666665  6.069711538461538 3.999999999999999  6.009615384615385 3.999999999999999  L 4.326923076923077 3.999999999999999  C 3.6658653846153846 3.999999999999999  3.099959935897436 4.244791666666663  2.629206730769231 4.734375  C 2.158453525641026 5.223958333333331  1.9230769230769231 5.8125  2 6.500000000000001  L 2 19.5  C 1.9230769230769231 20.1875  2.158453525641026 20.776041666666664  2.629206730769231 21.265625  C 3.099959935897436 21.755208333333332  3.6658653846153846 22  4.326923076923077 22  L 16.826923076923077 22  C 17.487980769230766 22  18.05388621794872 21.755208333333332  18.524639423076923 21.265625  C 18.995392628205128 20.776041666666664  19.230769230769234 20.1875  19.230769230769234 19.5  L 19.230769230769234 16.15625  C 19.230769230769234 15.958333333333334  19.32091346153846 15.807291666666664  19.501201923076923 15.703125  C 19.781650641025642 15.567708333333332  20.052083333333336 15.375  20.3125 15.124999999999998  C 20.472756410256412 14.958333333333332  20.64803685897436 14.916666666666664  20.838341346153847 15  Z M 25 6.999999999999999  C 25 7.270833333333332  24.90484775641026 7.505208333333332  24.714543269230766 7.703124999999999  L 18.9453125 13.703125000000002  C 18.76502403846154 13.901041666666666  18.53966346153846 13.999999999999998  18.269230769230766 13.999999999999998  C 18.14903846153846 13.999999999999998  18.023838141025642 13.973958333333332  17.893629807692307 13.921875  C 17.503004807692307 13.744791666666664  17.307692307692307 13.437499999999998  17.307692307692307 13.000000000000002  L 17.307692307692307 10  L 14.903846153846153 10  C 11.668669871794874 10  9.475160256410257 10.682291666666664  8.323317307692307 12.046875  C 7.131410256410257 13.473958333333334  6.760817307692308 15.9375  7.211538461538461 19.4375  C 7.241586538461539 19.677083333333332  7.141426282051283 19.854166666666664  6.9110576923076925 19.96875  C 6.830929487179488 19.989583333333332  6.770833333333334 20  6.730769230769231 20  C 6.570512820512821 20  6.440304487179488 19.932291666666664  6.340144230769231 19.796875  C 6.239983974358975 19.651041666666664  6.134815705128205 19.489583333333332  6.024639423076923 19.3125  C 5.914463141025642 19.135416666666664  5.716646634615385 18.778645833333332  5.431189903846153 18.2421875  C 5.145733173076923 17.705729166666664  4.897836538461538 17.1875  4.6875 16.6875  C 4.477163461538462 16.1875  4.284354967948718 15.593749999999998  4.109074519230769 14.90625  C 3.9337940705128207 14.218750000000002  3.8461538461538463 13.58333333333333  3.8461538461538463 13.000000000000002  C 3.8461538461538463 12.489583333333334  3.8636818910256414 12.015625000000002  3.8987379807692304 11.578125  C 3.9337940705128207 11.140624999999998  4.00390625 10.671874999999998  4.109074519230769 10.171875  C 4.214242788461538 9.671875  4.354467147435899 9.213541666666664  4.529747596153847 8.796875  C 4.705028044871796 8.380208333333332  4.940404647435899 7.955729166666664  5.235877403846153 7.5234375  C 5.531350160256411 7.091145833333333  5.874399038461538 6.705729166666663  6.265024038461539 6.367187499999999  C 6.655649038461539 6.028645833333332  7.128906250000002 5.708333333333333  7.684795673076923 5.406249999999999  C 8.240685096153847 5.104166666666665  8.864182692307693 4.8515625  9.555288461538462 4.648437500000001  C 10.24639423076923 4.445312499999999  11.045172275641027 4.286458333333331  11.951622596153847 4.171875  C 12.858072916666668 4.057291666666663  13.842147435897436 3.999999999999999  14.903846153846153 3.999999999999999  L 17.307692307692307 3.999999999999999  L 17.307692307692307 0.9999999999999991  C 17.307692307692307 0.5625  17.503004807692307 0.25520833333333126  17.893629807692307 0.07812500000000089  C 18.023838141025642 0.02604166666666874  18.14903846153846 0  18.269230769230766 0  C 18.529647435897438 0  18.755008012820515 0.09895833333333481  18.9453125 0.2968749999999991  L 24.714543269230766 6.296874999999999  C 24.90484775641026 6.494791666666663  25 6.729166666666663  25 6.999999999999999  Z " fill-rule="evenodd" />
    </mask>
  </defs>
  <g transform="matrix(1 0 0 1 -224 -1569 )">
    <path d="M 20.838341346153847 15  C 21.048677884615387 15.09375  21.153846153846153 15.244791666666664  21.153846153846153 15.453124999999998  L 21.153846153846153 19.5  C 21.153846153846153 20.739583333333332  20.73066907051282 21.799479166666668  19.884314903846153 22.6796875  C 19.03796073717949 23.559895833333332  18.018830128205128 24  16.826923076923077 24  L 4.326923076923077 24  C 3.1350160256410255 24  2.115885416666667 23.559895833333332  1.26953125 22.6796875  C 0.4231770833333333 21.799479166666668  0 20.739583333333332  0 19.5  L 0 6.500000000000001  C 0 5.260416666666664  0.4231770833333333 4.200520833333332  1.26953125 3.320312499999999  C 2.115885416666667 2.4401041666666634  3.1350160256410255 2.000000000000001  4.326923076923077 2.000000000000001  L 8.158052884615383 2.000000000000001  C 8.288261217948719 2.000000000000001  8.400941506410257 2.0494791666666643  8.49609375 2.148437499999999  C 8.591245993589745 2.2473958333333313  8.638822115384617 2.3645833333333313  8.638822115384617 2.499999999999999  C 8.638822115384617 2.781249999999999  8.508613782051283 2.947916666666665  8.248197115384617 3  C 7.476963141025641 3.270833333333333  6.810897435897437 3.5833333333333313  6.25 3.9375  C 6.149839743589744 3.979166666666665  6.069711538461538 3.999999999999999  6.009615384615385 3.999999999999999  L 4.326923076923077 3.999999999999999  C 3.6658653846153846 3.999999999999999  3.099959935897436 4.244791666666663  2.629206730769231 4.734375  C 2.158453525641026 5.223958333333331  1.9230769230769231 5.8125  2 6.500000000000001  L 2 19.5  C 1.9230769230769231 20.1875  2.158453525641026 20.776041666666664  2.629206730769231 21.265625  C 3.099959935897436 21.755208333333332  3.6658653846153846 22  4.326923076923077 22  L 16.826923076923077 22  C 17.487980769230766 22  18.05388621794872 21.755208333333332  18.524639423076923 21.265625  C 18.995392628205128 20.776041666666664  19.230769230769234 20.1875  19.230769230769234 19.5  L 19.230769230769234 16.15625  C 19.230769230769234 15.958333333333334  19.32091346153846 15.807291666666664  19.501201923076923 15.703125  C 19.781650641025642 15.567708333333332  20.052083333333336 15.375  20.3125 15.124999999999998  C 20.472756410256412 14.958333333333332  20.64803685897436 14.916666666666664  20.838341346153847 15  Z M 25 6.999999999999999  C 25 7.270833333333332  24.90484775641026 7.505208333333332  24.714543269230766 7.703124999999999  L 18.9453125 13.703125000000002  C 18.76502403846154 13.901041666666666  18.53966346153846 13.999999999999998  18.269230769230766 13.999999999999998  C 18.14903846153846 13.999999999999998  18.023838141025642 13.973958333333332  17.893629807692307 13.921875  C 17.503004807692307 13.744791666666664  17.307692307692307 13.437499999999998  17.307692307692307 13.000000000000002  L 17.307692307692307 10  L 14.903846153846153 10  C 11.668669871794874 10  9.475160256410257 10.682291666666664  8.323317307692307 12.046875  C 7.131410256410257 13.473958333333334  6.760817307692308 15.9375  7.211538461538461 19.4375  C 7.241586538461539 19.677083333333332  7.141426282051283 19.854166666666664  6.9110576923076925 19.96875  C 6.830929487179488 19.989583333333332  6.770833333333334 20  6.730769230769231 20  C 6.570512820512821 20  6.440304487179488 19.932291666666664  6.340144230769231 19.796875  C 6.239983974358975 19.651041666666664  6.134815705128205 19.489583333333332  6.024639423076923 19.3125  C 5.914463141025642 19.135416666666664  5.716646634615385 18.778645833333332  5.431189903846153 18.2421875  C 5.145733173076923 17.705729166666664  4.897836538461538 17.1875  4.6875 16.6875  C 4.477163461538462 16.1875  4.284354967948718 15.593749999999998  4.109074519230769 14.90625  C 3.9337940705128207 14.218750000000002  3.8461538461538463 13.58333333333333  3.8461538461538463 13.000000000000002  C 3.8461538461538463 12.489583333333334  3.8636818910256414 12.015625000000002  3.8987379807692304 11.578125  C 3.9337940705128207 11.140624999999998  4.00390625 10.671874999999998  4.109074519230769 10.171875  C 4.214242788461538 9.671875  4.354467147435899 9.213541666666664  4.529747596153847 8.796875  C 4.705028044871796 8.380208333333332  4.940404647435899 7.955729166666664  5.235877403846153 7.5234375  C 5.531350160256411 7.091145833333333  5.874399038461538 6.705729166666663  6.265024038461539 6.367187499999999  C 6.655649038461539 6.028645833333332  7.128906250000002 5.708333333333333  7.684795673076923 5.406249999999999  C 8.240685096153847 5.104166666666665  8.864182692307693 4.8515625  9.555288461538462 4.648437500000001  C 10.24639423076923 4.445312499999999  11.045172275641027 4.286458333333331  11.951622596153847 4.171875  C 12.858072916666668 4.057291666666663  13.842147435897436 3.999999999999999  14.903846153846153 3.999999999999999  L 17.307692307692307 3.999999999999999  L 17.307692307692307 0.9999999999999991  C 17.307692307692307 0.5625  17.503004807692307 0.25520833333333126  17.893629807692307 0.07812500000000089  C 18.023838141025642 0.02604166666666874  18.14903846153846 0  18.269230769230766 0  C 18.529647435897438 0  18.755008012820515 0.09895833333333481  18.9453125 0.2968749999999991  L 24.714543269230766 6.296874999999999  C 24.90484775641026 6.494791666666663  25 6.729166666666663  25 6.999999999999999  Z " fill-rule="nonzero" fill="rgba(245, 245, 246, 1)" stroke="none" transform="matrix(1 0 0 1 224 1569 )" class="fill" />
    <path d="M 20.838341346153847 15  C 21.048677884615387 15.09375  21.153846153846153 15.244791666666664  21.153846153846153 15.453124999999998  L 21.153846153846153 19.5  C 21.153846153846153 20.739583333333332  20.73066907051282 21.799479166666668  19.884314903846153 22.6796875  C 19.03796073717949 23.559895833333332  18.018830128205128 24  16.826923076923077 24  L 4.326923076923077 24  C 3.1350160256410255 24  2.115885416666667 23.559895833333332  1.26953125 22.6796875  C 0.4231770833333333 21.799479166666668  0 20.739583333333332  0 19.5  L 0 6.500000000000001  C 0 5.260416666666664  0.4231770833333333 4.200520833333332  1.26953125 3.320312499999999  C 2.115885416666667 2.4401041666666634  3.1350160256410255 2.000000000000001  4.326923076923077 2.000000000000001  L 8.158052884615383 2.000000000000001  C 8.288261217948719 2.000000000000001  8.400941506410257 2.0494791666666643  8.49609375 2.148437499999999  C 8.591245993589745 2.2473958333333313  8.638822115384617 2.3645833333333313  8.638822115384617 2.499999999999999  C 8.638822115384617 2.781249999999999  8.508613782051283 2.947916666666665  8.248197115384617 3  C 7.476963141025641 3.270833333333333  6.810897435897437 3.5833333333333313  6.25 3.9375  C 6.149839743589744 3.979166666666665  6.069711538461538 3.999999999999999  6.009615384615385 3.999999999999999  L 4.326923076923077 3.999999999999999  C 3.6658653846153846 3.999999999999999  3.099959935897436 4.244791666666663  2.629206730769231 4.734375  C 2.158453525641026 5.223958333333331  1.9230769230769231 5.8125  2 6.500000000000001  L 2 19.5  C 1.9230769230769231 20.1875  2.158453525641026 20.776041666666664  2.629206730769231 21.265625  C 3.099959935897436 21.755208333333332  3.6658653846153846 22  4.326923076923077 22  L 16.826923076923077 22  C 17.487980769230766 22  18.05388621794872 21.755208333333332  18.524639423076923 21.265625  C 18.995392628205128 20.776041666666664  19.230769230769234 20.1875  19.230769230769234 19.5  L 19.230769230769234 16.15625  C 19.230769230769234 15.958333333333334  19.32091346153846 15.807291666666664  19.501201923076923 15.703125  C 19.781650641025642 15.567708333333332  20.052083333333336 15.375  20.3125 15.124999999999998  C 20.472756410256412 14.958333333333332  20.64803685897436 14.916666666666664  20.838341346153847 15  Z " stroke-width="0" stroke-dasharray="0" stroke="rgba(255, 255, 255, 0)" fill="none" transform="matrix(1 0 0 1 224 1569 )" class="stroke" mask="url(#Clip37)" />
    <path d="M 25 6.999999999999999  C 25 7.270833333333332  24.90484775641026 7.505208333333332  24.714543269230766 7.703124999999999  L 18.9453125 13.703125000000002  C 18.76502403846154 13.901041666666666  18.53966346153846 13.999999999999998  18.269230769230766 13.999999999999998  C 18.14903846153846 13.999999999999998  18.023838141025642 13.973958333333332  17.893629807692307 13.921875  C 17.503004807692307 13.744791666666664  17.307692307692307 13.437499999999998  17.307692307692307 13.000000000000002  L 17.307692307692307 10  L 14.903846153846153 10  C 11.668669871794874 10  9.475160256410257 10.682291666666664  8.323317307692307 12.046875  C 7.131410256410257 13.473958333333334  6.760817307692308 15.9375  7.211538461538461 19.4375  C 7.241586538461539 19.677083333333332  7.141426282051283 19.854166666666664  6.9110576923076925 19.96875  C 6.830929487179488 19.989583333333332  6.770833333333334 20  6.730769230769231 20  C 6.570512820512821 20  6.440304487179488 19.932291666666664  6.340144230769231 19.796875  C 6.239983974358975 19.651041666666664  6.134815705128205 19.489583333333332  6.024639423076923 19.3125  C 5.914463141025642 19.135416666666664  5.716646634615385 18.778645833333332  5.431189903846153 18.2421875  C 5.145733173076923 17.705729166666664  4.897836538461538 17.1875  4.6875 16.6875  C 4.477163461538462 16.1875  4.284354967948718 15.593749999999998  4.109074519230769 14.90625  C 3.9337940705128207 14.218750000000002  3.8461538461538463 13.58333333333333  3.8461538461538463 13.000000000000002  C 3.8461538461538463 12.489583333333334  3.8636818910256414 12.015625000000002  3.8987379807692304 11.578125  C 3.9337940705128207 11.140624999999998  4.00390625 10.671874999999998  4.109074519230769 10.171875  C 4.214242788461538 9.671875  4.354467147435899 9.213541666666664  4.529747596153847 8.796875  C 4.705028044871796 8.380208333333332  4.940404647435899 7.955729166666664  5.235877403846153 7.5234375  C 5.531350160256411 7.091145833333333  5.874399038461538 6.705729166666663  6.265024038461539 6.367187499999999  C 6.655649038461539 6.028645833333332  7.128906250000002 5.708333333333333  7.684795673076923 5.406249999999999  C 8.240685096153847 5.104166666666665  8.864182692307693 4.8515625  9.555288461538462 4.648437500000001  C 10.24639423076923 4.445312499999999  11.045172275641027 4.286458333333331  11.951622596153847 4.171875  C 12.858072916666668 4.057291666666663  13.842147435897436 3.999999999999999  14.903846153846153 3.999999999999999  L 17.307692307692307 3.999999999999999  L 17.307692307692307 0.9999999999999991  C 17.307692307692307 0.5625  17.503004807692307 0.25520833333333126  17.893629807692307 0.07812500000000089  C 18.023838141025642 0.02604166666666874  18.14903846153846 0  18.269230769230766 0  C 18.529647435897438 0  18.755008012820515 0.09895833333333481  18.9453125 0.2968749999999991  L 24.714543269230766 6.296874999999999  C 24.90484775641026 6.494791666666663  25 6.729166666666663  25 6.999999999999999  Z " stroke-width="0" stroke-dasharray="0" stroke="rgba(255, 255, 255, 0)" fill="none" transform="matrix(1 0 0 1 224 1569 )" class="stroke" mask="url(#Clip37)" />
  </g>
</svg>