<?xml version="1.0" encoding="utf-8"?>
<svg version="1.1" xmlns:xlink="http://www.w3.org/1999/xlink" width="42px" height="43px" xmlns="http://www.w3.org/2000/svg">
  <defs>
    <pattern id="BGPattern" patternUnits="userSpaceOnUse" alignment="0 0" imageRepeat="None" />
    <mask fill="white" id="Clip2">
      <path d="M 34.48046875 24.55143229166667  C 34.82682291666667 24.19683159722222  35 23.77690972222222  35 23.29166666666667  L 35 19.708333333333336  C 35 19.223090277777775  34.82682291666667 18.803168402777775  34.48046875 18.448567708333336  C 34.134114583333336 18.09396701388889  33.723958333333336 17.916666666666664  33.25 17.916666666666664  L 24.5 17.916666666666664  L 24.5 8.958333333333336  C 24.5 8.473090277777775  24.32682291666667 8.053168402777775  23.98046875 7.698567708333335  C 23.634114583333336 7.343967013888885  23.223958333333336 7.166666666666665  22.75 7.166666666666665  L 19.25 7.166666666666665  C 18.776041666666668 7.166666666666665  18.365885416666668 7.343967013888885  18.01953125 7.698567708333335  C 17.673177083333336 8.053168402777775  17.5 8.473090277777775  17.5 8.958333333333336  L 17.5 17.916666666666664  L 8.75 17.916666666666664  C 8.276041666666668 17.916666666666664  7.865885416666668 18.09396701388889  7.51953125 18.448567708333336  C 7.173177083333334 18.803168402777775  7 19.223090277777775  7 19.708333333333336  L 7 23.29166666666667  C 7 23.77690972222222  7.173177083333334 24.19683159722222  7.51953125 24.55143229166667  C 7.865885416666668 24.90603298611111  8.276041666666668 25.08333333333333  8.75 25.08333333333333  L 17.5 25.08333333333333  L 17.5 34.041666666666664  C 17.5 34.52690972222222  17.673177083333336 34.94683159722222  18.01953125 35.301432291666664  C 18.365885416666668 35.656032986111114  18.776041666666668 35.833333333333336  19.25 35.833333333333336  L 22.75 35.833333333333336  C 23.223958333333336 35.833333333333336  23.634114583333336 35.656032986111114  23.98046875 35.301432291666664  C 24.32682291666667 34.94683159722222  24.5 34.52690972222222  24.5 34.041666666666664  L 24.5 25.08333333333333  L 33.25 25.08333333333333  C 33.723958333333336 25.08333333333333  34.134114583333336 24.90603298611111  34.48046875 24.55143229166667  Z M 39.689453125 2.365559895833335  C 41.22981770833333 3.9425998263888853  42 5.841579861111105  42 8.0625  L 42 34.9375  C 42 37.158420138888886  41.22981770833333 39.057400173611114  39.689453125 40.634440104166664  C 38.14908854166667 42.21148003472222  36.294270833333336 43  34.125 43  L 7.875 43  C 5.705729166666667 43  3.850911458333334 42.21148003472222  2.310546875 40.634440104166664  C 0.7701822916666665 39.057400173611114  0 37.158420138888886  0 34.9375  L 0 8.0625  C 0 5.841579861111105  0.7701822916666665 3.9425998263888853  2.310546875 2.365559895833335  C 3.850911458333334 0.7885199652777751  5.705729166666667 0  7.875 0  L 34.125 0  C 36.294270833333336 0  38.14908854166667 0.7885199652777751  39.689453125 2.365559895833335  Z " fill-rule="evenodd" />
    </mask>
  </defs>
  <g transform="matrix(1 0 0 1 -333 -54 )">
    <path d="M 34.48046875 24.55143229166667  C 34.82682291666667 24.19683159722222  35 23.77690972222222  35 23.29166666666667  L 35 19.708333333333336  C 35 19.223090277777775  34.82682291666667 18.803168402777775  34.48046875 18.448567708333336  C 34.134114583333336 18.09396701388889  33.723958333333336 17.916666666666664  33.25 17.916666666666664  L 24.5 17.916666666666664  L 24.5 8.958333333333336  C 24.5 8.473090277777775  24.32682291666667 8.053168402777775  23.98046875 7.698567708333335  C 23.634114583333336 7.343967013888885  23.223958333333336 7.166666666666665  22.75 7.166666666666665  L 19.25 7.166666666666665  C 18.776041666666668 7.166666666666665  18.365885416666668 7.343967013888885  18.01953125 7.698567708333335  C 17.673177083333336 8.053168402777775  17.5 8.473090277777775  17.5 8.958333333333336  L 17.5 17.916666666666664  L 8.75 17.916666666666664  C 8.276041666666668 17.916666666666664  7.865885416666668 18.09396701388889  7.51953125 18.448567708333336  C 7.173177083333334 18.803168402777775  7 19.223090277777775  7 19.708333333333336  L 7 23.29166666666667  C 7 23.77690972222222  7.173177083333334 24.19683159722222  7.51953125 24.55143229166667  C 7.865885416666668 24.90603298611111  8.276041666666668 25.08333333333333  8.75 25.08333333333333  L 17.5 25.08333333333333  L 17.5 34.041666666666664  C 17.5 34.52690972222222  17.673177083333336 34.94683159722222  18.01953125 35.301432291666664  C 18.365885416666668 35.656032986111114  18.776041666666668 35.833333333333336  19.25 35.833333333333336  L 22.75 35.833333333333336  C 23.223958333333336 35.833333333333336  23.634114583333336 35.656032986111114  23.98046875 35.301432291666664  C 24.32682291666667 34.94683159722222  24.5 34.52690972222222  24.5 34.041666666666664  L 24.5 25.08333333333333  L 33.25 25.08333333333333  C 33.723958333333336 25.08333333333333  34.134114583333336 24.90603298611111  34.48046875 24.55143229166667  Z M 39.689453125 2.365559895833335  C 41.22981770833333 3.9425998263888853  42 5.841579861111105  42 8.0625  L 42 34.9375  C 42 37.158420138888886  41.22981770833333 39.057400173611114  39.689453125 40.634440104166664  C 38.14908854166667 42.21148003472222  36.294270833333336 43  34.125 43  L 7.875 43  C 5.705729166666667 43  3.850911458333334 42.21148003472222  2.310546875 40.634440104166664  C 0.7701822916666665 39.057400173611114  0 37.158420138888886  0 34.9375  L 0 8.0625  C 0 5.841579861111105  0.7701822916666665 3.9425998263888853  2.310546875 2.365559895833335  C 3.850911458333334 0.7885199652777751  5.705729166666667 0  7.875 0  L 34.125 0  C 36.294270833333336 0  38.14908854166667 0.7885199652777751  39.689453125 2.365559895833335  Z " fill-rule="nonzero" fill="rgba(30, 152, 215, 1)" stroke="none" transform="matrix(1 0 0 1 333 54 )" class="fill" />
    <path d="M 34.48046875 24.55143229166667  C 34.82682291666667 24.19683159722222  35 23.77690972222222  35 23.29166666666667  L 35 19.708333333333336  C 35 19.223090277777775  34.82682291666667 18.803168402777775  34.48046875 18.448567708333336  C 34.134114583333336 18.09396701388889  33.723958333333336 17.916666666666664  33.25 17.916666666666664  L 24.5 17.916666666666664  L 24.5 8.958333333333336  C 24.5 8.473090277777775  24.32682291666667 8.053168402777775  23.98046875 7.698567708333335  C 23.634114583333336 7.343967013888885  23.223958333333336 7.166666666666665  22.75 7.166666666666665  L 19.25 7.166666666666665  C 18.776041666666668 7.166666666666665  18.365885416666668 7.343967013888885  18.01953125 7.698567708333335  C 17.673177083333336 8.053168402777775  17.5 8.473090277777775  17.5 8.958333333333336  L 17.5 17.916666666666664  L 8.75 17.916666666666664  C 8.276041666666668 17.916666666666664  7.865885416666668 18.09396701388889  7.51953125 18.448567708333336  C 7.173177083333334 18.803168402777775  7 19.223090277777775  7 19.708333333333336  L 7 23.29166666666667  C 7 23.77690972222222  7.173177083333334 24.19683159722222  7.51953125 24.55143229166667  C 7.865885416666668 24.90603298611111  8.276041666666668 25.08333333333333  8.75 25.08333333333333  L 17.5 25.08333333333333  L 17.5 34.041666666666664  C 17.5 34.52690972222222  17.673177083333336 34.94683159722222  18.01953125 35.301432291666664  C 18.365885416666668 35.656032986111114  18.776041666666668 35.833333333333336  19.25 35.833333333333336  L 22.75 35.833333333333336  C 23.223958333333336 35.833333333333336  23.634114583333336 35.656032986111114  23.98046875 35.301432291666664  C 24.32682291666667 34.94683159722222  24.5 34.52690972222222  24.5 34.041666666666664  L 24.5 25.08333333333333  L 33.25 25.08333333333333  C 33.723958333333336 25.08333333333333  34.134114583333336 24.90603298611111  34.48046875 24.55143229166667  Z " stroke-width="0" stroke-dasharray="0" stroke="rgba(255, 255, 255, 0)" fill="none" transform="matrix(1 0 0 1 333 54 )" class="stroke" mask="url(#Clip2)" />
    <path d="M 39.689453125 2.365559895833335  C 41.22981770833333 3.9425998263888853  42 5.841579861111105  42 8.0625  L 42 34.9375  C 42 37.158420138888886  41.22981770833333 39.057400173611114  39.689453125 40.634440104166664  C 38.14908854166667 42.21148003472222  36.294270833333336 43  34.125 43  L 7.875 43  C 5.705729166666667 43  3.850911458333334 42.21148003472222  2.310546875 40.634440104166664  C 0.7701822916666665 39.057400173611114  0 37.158420138888886  0 34.9375  L 0 8.0625  C 0 5.841579861111105  0.7701822916666665 3.9425998263888853  2.310546875 2.365559895833335  C 3.850911458333334 0.7885199652777751  5.705729166666667 0  7.875 0  L 34.125 0  C 36.294270833333336 0  38.14908854166667 0.7885199652777751  39.689453125 2.365559895833335  Z " stroke-width="0" stroke-dasharray="0" stroke="rgba(255, 255, 255, 0)" fill="none" transform="matrix(1 0 0 1 333 54 )" class="stroke" mask="url(#Clip2)" />
  </g>
</svg>