<?xml version="1.0" encoding="utf-8"?>
<svg version="1.1" xmlns:xlink="http://www.w3.org/1999/xlink" width="18px" height="21px" xmlns="http://www.w3.org/2000/svg">
  <defs>
    <pattern id="BGPattern" patternUnits="userSpaceOnUse" alignment="0 0" imageRepeat="None" />
    <mask fill="white" id="Clip43">
      <path d="M 12.181640625 9.474609375  C 13.060546875 8.791015625  13.5 7.966145833333334  13.5 7.000000000000001  C 13.5 6.033854166666666  13.060546875 5.208984375  12.181640625 4.525390624999999  C 11.302734375 3.841796875000001  10.242187500000002 3.499999999999999  9 3.499999999999999  C 7.757812500000001 3.499999999999999  6.697265625 3.841796875000001  5.818359375 4.525390624999999  C 4.939453125 5.208984375  4.5 6.033854166666666  4.5 7.000000000000001  C 4.5 7.966145833333334  4.939453125 8.791015625  5.818359375 9.474609375  C 6.697265625 10.158203125  7.757812500000001 10.5  9 10.5  C 10.242187500000002 10.5  11.302734375 10.158203125  12.181640625 9.474609375  Z M 15.36328125 2.05078125  C 17.12109375 3.417968749999999  18 5.06770833333333  18 7.000000000000001  C 18 7.993489583333332  17.806640625 8.809244791666666  17.419921875 9.447265625  L 11.021484375 20.029296875  C 10.833984375 20.330078125  10.5556640625 20.567057291666664  10.1865234375 20.740234375  C 9.8173828125 20.913411458333336  9.421875 21  9 21  C 8.578125 21  8.1826171875 20.913411458333336  7.8134765625 20.740234375  C 7.4443359375 20.567057291666664  7.171875 20.330078125  6.99609375 20.029296875  L 0.580078125 9.447265625  C 0.193359375 8.809244791666666  0 7.993489583333332  0 7.000000000000001  C 0 5.06770833333333  0.87890625 3.417968749999999  2.63671875 2.05078125  C 4.394531250000001 0.6835937500000008  6.515625 0  9 0  C 11.484375 0  13.60546875 0.6835937500000008  15.36328125 2.05078125  Z " fill-rule="evenodd" />
    </mask>
  </defs>
  <g transform="matrix(1 0 0 1 -22 -60 )">
    <path d="M 12.181640625 9.474609375  C 13.060546875 8.791015625  13.5 7.966145833333334  13.5 7.000000000000001  C 13.5 6.033854166666666  13.060546875 5.208984375  12.181640625 4.525390624999999  C 11.302734375 3.841796875000001  10.242187500000002 3.499999999999999  9 3.499999999999999  C 7.757812500000001 3.499999999999999  6.697265625 3.841796875000001  5.818359375 4.525390624999999  C 4.939453125 5.208984375  4.5 6.033854166666666  4.5 7.000000000000001  C 4.5 7.966145833333334  4.939453125 8.791015625  5.818359375 9.474609375  C 6.697265625 10.158203125  7.757812500000001 10.5  9 10.5  C 10.242187500000002 10.5  11.302734375 10.158203125  12.181640625 9.474609375  Z M 15.36328125 2.05078125  C 17.12109375 3.417968749999999  18 5.06770833333333  18 7.000000000000001  C 18 7.993489583333332  17.806640625 8.809244791666666  17.419921875 9.447265625  L 11.021484375 20.029296875  C 10.833984375 20.330078125  10.5556640625 20.567057291666664  10.1865234375 20.740234375  C 9.8173828125 20.913411458333336  9.421875 21  9 21  C 8.578125 21  8.1826171875 20.913411458333336  7.8134765625 20.740234375  C 7.4443359375 20.567057291666664  7.171875 20.330078125  6.99609375 20.029296875  L 0.580078125 9.447265625  C 0.193359375 8.809244791666666  0 7.993489583333332  0 7.000000000000001  C 0 5.06770833333333  0.87890625 3.417968749999999  2.63671875 2.05078125  C 4.394531250000001 0.6835937500000008  6.515625 0  9 0  C 11.484375 0  13.60546875 0.6835937500000008  15.36328125 2.05078125  Z " fill-rule="nonzero" fill="rgba(184, 184, 184, 1)" stroke="none" transform="matrix(1 0 0 1 22 60 )" class="fill" />
    <path d="M 12.181640625 9.474609375  C 13.060546875 8.791015625  13.5 7.966145833333334  13.5 7.000000000000001  C 13.5 6.033854166666666  13.060546875 5.208984375  12.181640625 4.525390624999999  C 11.302734375 3.841796875000001  10.242187500000002 3.499999999999999  9 3.499999999999999  C 7.757812500000001 3.499999999999999  6.697265625 3.841796875000001  5.818359375 4.525390624999999  C 4.939453125 5.208984375  4.5 6.033854166666666  4.5 7.000000000000001  C 4.5 7.966145833333334  4.939453125 8.791015625  5.818359375 9.474609375  C 6.697265625 10.158203125  7.757812500000001 10.5  9 10.5  C 10.242187500000002 10.5  11.302734375 10.158203125  12.181640625 9.474609375  Z " stroke-width="0" stroke-dasharray="0" stroke="rgba(255, 255, 255, 0)" fill="none" transform="matrix(1 0 0 1 22 60 )" class="stroke" mask="url(#Clip43)" />
    <path d="M 15.36328125 2.05078125  C 17.12109375 3.417968749999999  18 5.06770833333333  18 7.000000000000001  C 18 7.993489583333332  17.806640625 8.809244791666666  17.419921875 9.447265625  L 11.021484375 20.029296875  C 10.833984375 20.330078125  10.5556640625 20.567057291666664  10.1865234375 20.740234375  C 9.8173828125 20.913411458333336  9.421875 21  9 21  C 8.578125 21  8.1826171875 20.913411458333336  7.8134765625 20.740234375  C 7.4443359375 20.567057291666664  7.171875 20.330078125  6.99609375 20.029296875  L 0.580078125 9.447265625  C 0.193359375 8.809244791666666  0 7.993489583333332  0 7.000000000000001  C 0 5.06770833333333  0.87890625 3.417968749999999  2.63671875 2.05078125  C 4.394531250000001 0.6835937500000008  6.515625 0  9 0  C 11.484375 0  13.60546875 0.6835937500000008  15.36328125 2.05078125  Z " stroke-width="0" stroke-dasharray="0" stroke="rgba(255, 255, 255, 0)" fill="none" transform="matrix(1 0 0 1 22 60 )" class="stroke" mask="url(#Clip43)" />
  </g>
</svg>