<?xml version="1.0" encoding="utf-8"?>
<svg version="1.1" xmlns:xlink="http://www.w3.org/1999/xlink" width="23px" height="20px" xmlns="http://www.w3.org/2000/svg">
  <defs>
    <pattern id="BGPattern" patternUnits="userSpaceOnUse" alignment="0 0" imageRepeat="None" />
    <mask fill="white" id="Clip42">
      <path d="M 8.214285714285715 1.6666666666666674  L 8.214285714285715 3.3333333333333326  L 14.785714285714286 3.3333333333333326  L 14.785714285714286 1.6666666666666674  L 8.214285714285715 1.6666666666666674  Z M 14.375 11.666666666666664  L 23 11.666666666666664  L 23 17.916666666666668  C 23 18.489583333333332  22.798921130952383 18.98003472222222  22.396763392857142 19.388020833333332  C 21.99460565476191 19.796006944444443  21.51116071428572 20  20.94642857142857 20  L 2.053571428571429 20  C 1.4888392857142858 20  1.0053943452380953 19.796006944444443  0.6032366071428572 19.388020833333332  C 0.20107886904761904 18.98003472222222  0 18.489583333333332  0 17.916666666666668  L 0 11.666666666666664  L 8.625 11.666666666666664  L 8.625 13.75  C 8.625 13.975694444444443  8.706287202380953 14.171006944444443  8.868861607142856 14.3359375  C 9.031436011904763 14.500868055555554  9.223958333333334 14.583333333333336  9.446428571428571 14.583333333333336  L 13.553571428571429 14.583333333333336  C 13.776041666666668 14.583333333333336  13.96856398809524 14.500868055555554  14.131138392857142 14.3359375  C 14.293712797619047 14.171006944444443  14.375 13.975694444444443  14.375 13.75  L 14.375 11.666666666666664  Z M 9.857142857142856 11.666666666666664  L 13.142857142857142 11.666666666666664  L 13.142857142857142 13.333333333333336  L 9.857142857142856 13.333333333333336  L 9.857142857142856 11.666666666666664  Z M 22.396763392857142 3.9453125  C 22.798921130952383 4.353298611111109  23 4.84375  23 5.416666666666668  L 23 10.416666666666664  L 0 10.416666666666664  L 0 5.416666666666668  C 0 4.84375  0.20107886904761904 4.353298611111109  0.6032366071428572 3.9453125  C 1.0053943452380953 3.537326388888886  1.4888392857142858 3.3333333333333326  2.053571428571429 3.3333333333333326  L 6.571428571428571 3.3333333333333326  L 6.571428571428571 1.25  C 6.571428571428571 0.9027777777777768  6.691220238095239 0.6076388888888862  6.930803571428571 0.3645833333333326  C 7.170386904761906 0.12152777777777901  7.461309523809524 0  7.803571428571429 0  L 15.196428571428571 0  C 15.538690476190478 0  15.829613095238097 0.12152777777777901  16.06919642857143 0.3645833333333326  C 16.308779761904763 0.6076388888888862  16.42857142857143 0.9027777777777768  16.42857142857143 1.25  L 16.42857142857143 3.3333333333333326  L 20.94642857142857 3.3333333333333326  C 21.51116071428572 3.3333333333333326  21.99460565476191 3.537326388888886  22.396763392857142 3.9453125  Z " fill-rule="evenodd" />
    </mask>
  </defs>
  <g transform="matrix(1 0 0 1 -140 -60 )">
    <path d="M 8.214285714285715 1.6666666666666674  L 8.214285714285715 3.3333333333333326  L 14.785714285714286 3.3333333333333326  L 14.785714285714286 1.6666666666666674  L 8.214285714285715 1.6666666666666674  Z M 14.375 11.666666666666664  L 23 11.666666666666664  L 23 17.916666666666668  C 23 18.489583333333332  22.798921130952383 18.98003472222222  22.396763392857142 19.388020833333332  C 21.99460565476191 19.796006944444443  21.51116071428572 20  20.94642857142857 20  L 2.053571428571429 20  C 1.4888392857142858 20  1.0053943452380953 19.796006944444443  0.6032366071428572 19.388020833333332  C 0.20107886904761904 18.98003472222222  0 18.489583333333332  0 17.916666666666668  L 0 11.666666666666664  L 8.625 11.666666666666664  L 8.625 13.75  C 8.625 13.975694444444443  8.706287202380953 14.171006944444443  8.868861607142856 14.3359375  C 9.031436011904763 14.500868055555554  9.223958333333334 14.583333333333336  9.446428571428571 14.583333333333336  L 13.553571428571429 14.583333333333336  C 13.776041666666668 14.583333333333336  13.96856398809524 14.500868055555554  14.131138392857142 14.3359375  C 14.293712797619047 14.171006944444443  14.375 13.975694444444443  14.375 13.75  L 14.375 11.666666666666664  Z M 9.857142857142856 11.666666666666664  L 13.142857142857142 11.666666666666664  L 13.142857142857142 13.333333333333336  L 9.857142857142856 13.333333333333336  L 9.857142857142856 11.666666666666664  Z M 22.396763392857142 3.9453125  C 22.798921130952383 4.353298611111109  23 4.84375  23 5.416666666666668  L 23 10.416666666666664  L 0 10.416666666666664  L 0 5.416666666666668  C 0 4.84375  0.20107886904761904 4.353298611111109  0.6032366071428572 3.9453125  C 1.0053943452380953 3.537326388888886  1.4888392857142858 3.3333333333333326  2.053571428571429 3.3333333333333326  L 6.571428571428571 3.3333333333333326  L 6.571428571428571 1.25  C 6.571428571428571 0.9027777777777768  6.691220238095239 0.6076388888888862  6.930803571428571 0.3645833333333326  C 7.170386904761906 0.12152777777777901  7.461309523809524 0  7.803571428571429 0  L 15.196428571428571 0  C 15.538690476190478 0  15.829613095238097 0.12152777777777901  16.06919642857143 0.3645833333333326  C 16.308779761904763 0.6076388888888862  16.42857142857143 0.9027777777777768  16.42857142857143 1.25  L 16.42857142857143 3.3333333333333326  L 20.94642857142857 3.3333333333333326  C 21.51116071428572 3.3333333333333326  21.99460565476191 3.537326388888886  22.396763392857142 3.9453125  Z " fill-rule="nonzero" fill="rgba(184, 184, 184, 1)" stroke="none" transform="matrix(1 0 0 1 140 60 )" class="fill" />
    <path d="M 8.214285714285715 1.6666666666666674  L 8.214285714285715 3.3333333333333326  L 14.785714285714286 3.3333333333333326  L 14.785714285714286 1.6666666666666674  L 8.214285714285715 1.6666666666666674  Z " stroke-width="0" stroke-dasharray="0" stroke="rgba(255, 255, 255, 0)" fill="none" transform="matrix(1 0 0 1 140 60 )" class="stroke" mask="url(#Clip42)" />
    <path d="M 14.375 11.666666666666664  L 23 11.666666666666664  L 23 17.916666666666668  C 23 18.489583333333332  22.798921130952383 18.98003472222222  22.396763392857142 19.388020833333332  C 21.99460565476191 19.796006944444443  21.51116071428572 20  20.94642857142857 20  L 2.053571428571429 20  C 1.4888392857142858 20  1.0053943452380953 19.796006944444443  0.6032366071428572 19.388020833333332  C 0.20107886904761904 18.98003472222222  0 18.489583333333332  0 17.916666666666668  L 0 11.666666666666664  L 8.625 11.666666666666664  L 8.625 13.75  C 8.625 13.975694444444443  8.706287202380953 14.171006944444443  8.868861607142856 14.3359375  C 9.031436011904763 14.500868055555554  9.223958333333334 14.583333333333336  9.446428571428571 14.583333333333336  L 13.553571428571429 14.583333333333336  C 13.776041666666668 14.583333333333336  13.96856398809524 14.500868055555554  14.131138392857142 14.3359375  C 14.293712797619047 14.171006944444443  14.375 13.975694444444443  14.375 13.75  L 14.375 11.666666666666664  Z " stroke-width="0" stroke-dasharray="0" stroke="rgba(255, 255, 255, 0)" fill="none" transform="matrix(1 0 0 1 140 60 )" class="stroke" mask="url(#Clip42)" />
    <path d="M 9.857142857142856 11.666666666666664  L 13.142857142857142 11.666666666666664  L 13.142857142857142 13.333333333333336  L 9.857142857142856 13.333333333333336  L 9.857142857142856 11.666666666666664  Z " stroke-width="0" stroke-dasharray="0" stroke="rgba(255, 255, 255, 0)" fill="none" transform="matrix(1 0 0 1 140 60 )" class="stroke" mask="url(#Clip42)" />
    <path d="M 22.396763392857142 3.9453125  C 22.798921130952383 4.353298611111109  23 4.84375  23 5.416666666666668  L 23 10.416666666666664  L 0 10.416666666666664  L 0 5.416666666666668  C 0 4.84375  0.20107886904761904 4.353298611111109  0.6032366071428572 3.9453125  C 1.0053943452380953 3.537326388888886  1.4888392857142858 3.3333333333333326  2.053571428571429 3.3333333333333326  L 6.571428571428571 3.3333333333333326  L 6.571428571428571 1.25  C 6.571428571428571 0.9027777777777768  6.691220238095239 0.6076388888888862  6.930803571428571 0.3645833333333326  C 7.170386904761906 0.12152777777777901  7.461309523809524 0  7.803571428571429 0  L 15.196428571428571 0  C 15.538690476190478 0  15.829613095238097 0.12152777777777901  16.06919642857143 0.3645833333333326  C 16.308779761904763 0.6076388888888862  16.42857142857143 0.9027777777777768  16.42857142857143 1.25  L 16.42857142857143 3.3333333333333326  L 20.94642857142857 3.3333333333333326  C 21.51116071428572 3.3333333333333326  21.99460565476191 3.537326388888886  22.396763392857142 3.9453125  Z " stroke-width="0" stroke-dasharray="0" stroke="rgba(255, 255, 255, 0)" fill="none" transform="matrix(1 0 0 1 140 60 )" class="stroke" mask="url(#Clip42)" />
  </g>
</svg>