<?xml version="1.0" encoding="utf-8"?>
<svg version="1.1" xmlns:xlink="http://www.w3.org/1999/xlink" width="8px" height="7px" xmlns="http://www.w3.org/2000/svg">
  <defs>
    <pattern id="BGPattern" patternUnits="userSpaceOnUse" alignment="0 0" imageRepeat="None" />
    <mask fill="white" id="Clip50">
      <path d="M 0 3.5  C 0 1.5399999999999998  1.7599999999999998 0  4 0  C 6.24 0  8 1.5399999999999998  8 3.5  C 8 5.46  6.24 7  4 7  C 1.7599999999999998 7  0 5.46  0 3.5  Z " fill-rule="evenodd" />
    </mask>
  </defs>
  <g transform="matrix(1 0 0 1 -77 -727 )">
    <path d="M 0 3.5  C 0 1.5399999999999998  1.7599999999999998 0  4 0  C 6.24 0  8 1.5399999999999998  8 3.5  C 8 5.46  6.24 7  4 7  C 1.7599999999999998 7  0 5.46  0 3.5  Z " fill-rule="nonzero" fill="rgba(249, 94, 90, 1)" stroke="none" transform="matrix(1 0 0 1 77 727 )" class="fill" />
    <path d="M 0 3.5  C 0 1.5399999999999998  1.7599999999999998 0  4 0  C 6.24 0  8 1.5399999999999998  8 3.5  C 8 5.46  6.24 7  4 7  C 1.7599999999999998 7  0 5.46  0 3.5  Z " stroke-width="0" stroke-dasharray="0" stroke="rgba(255, 255, 255, 1)" fill="none" transform="matrix(1 0 0 1 77 727 )" class="stroke" mask="url(#Clip50)" />
  </g>
</svg>